<mxfile host="app.diagrams.net" modified="2022-05-24T05:03:40.544Z" agent="5.0 (Windows NT 10.0; Win64; x64) AppleWebKit/537.36 (KHTML, like Gecko) Chrome/101.0.0.0 Safari/537.36" etag="tJAyMNo95YJB-LCcKzPL" version="18.1.1" type="github">
  <diagram name="Page-1" id="099fd60b-425b-db50-ffb0-6b813814b670">
    <mxGraphModel dx="2071" dy="568" grid="1" gridSize="10" guides="1" tooltips="1" connect="1" arrows="1" fold="1" page="1" pageScale="1" pageWidth="850" pageHeight="1100" background="none" math="0" shadow="0">
      <root>
        <mxCell id="0" />
        <mxCell id="1" parent="0" />
        <mxCell id="wA9x3qdydGXnw0zg_fOg-1" value="" style="endArrow=none;dashed=1;html=1;rounded=0;strokeWidth=3;fontStyle=1" parent="1" edge="1">
          <mxGeometry width="50" height="50" relative="1" as="geometry">
            <mxPoint x="440" y="50" as="sourcePoint" />
            <mxPoint x="640" y="50" as="targetPoint" />
          </mxGeometry>
        </mxCell>
        <mxCell id="wA9x3qdydGXnw0zg_fOg-2" value="" style="endArrow=none;dashed=1;html=1;rounded=0;strokeWidth=3;fontStyle=1" parent="1" edge="1">
          <mxGeometry width="50" height="50" relative="1" as="geometry">
            <mxPoint x="640" y="80" as="sourcePoint" />
            <mxPoint x="640" y="50" as="targetPoint" />
          </mxGeometry>
        </mxCell>
        <mxCell id="wA9x3qdydGXnw0zg_fOg-4" value="" style="endArrow=none;dashed=1;html=1;rounded=0;strokeWidth=3;fontStyle=1" parent="1" edge="1">
          <mxGeometry width="50" height="50" relative="1" as="geometry">
            <mxPoint x="630" y="80" as="sourcePoint" />
            <mxPoint x="640" y="80" as="targetPoint" />
          </mxGeometry>
        </mxCell>
        <mxCell id="wA9x3qdydGXnw0zg_fOg-6" value="" style="endArrow=none;dashed=1;html=1;rounded=0;strokeWidth=3;fontStyle=1" parent="1" edge="1">
          <mxGeometry width="50" height="50" relative="1" as="geometry">
            <mxPoint x="630" y="290" as="sourcePoint" />
            <mxPoint x="630" y="80" as="targetPoint" />
          </mxGeometry>
        </mxCell>
        <mxCell id="wA9x3qdydGXnw0zg_fOg-7" value="" style="endArrow=none;dashed=1;html=1;rounded=0;strokeWidth=3;fontStyle=1" parent="1" edge="1">
          <mxGeometry width="50" height="50" relative="1" as="geometry">
            <mxPoint x="589.17" y="291" as="sourcePoint" />
            <mxPoint x="589.17" y="81" as="targetPoint" />
          </mxGeometry>
        </mxCell>
        <mxCell id="wA9x3qdydGXnw0zg_fOg-9" value="" style="rounded=0;whiteSpace=wrap;html=1;fillColor=#0A0A0A;strokeWidth=3;fontStyle=1" parent="1" vertex="1">
          <mxGeometry x="530" y="100" width="20" height="20" as="geometry" />
        </mxCell>
        <mxCell id="wA9x3qdydGXnw0zg_fOg-10" value="" style="rounded=0;whiteSpace=wrap;html=1;fillColor=#0A0A0A;strokeWidth=3;fontStyle=1" parent="1" vertex="1">
          <mxGeometry x="600" y="140" width="20" height="20" as="geometry" />
        </mxCell>
        <mxCell id="wA9x3qdydGXnw0zg_fOg-11" value="" style="rounded=0;whiteSpace=wrap;html=1;fillColor=#0A0A0A;strokeWidth=3;fontStyle=1" parent="1" vertex="1">
          <mxGeometry x="600" y="180" width="20" height="20" as="geometry" />
        </mxCell>
        <mxCell id="wA9x3qdydGXnw0zg_fOg-12" value="" style="rounded=0;whiteSpace=wrap;html=1;fillColor=#0A0A0A;strokeWidth=3;fontStyle=1" parent="1" vertex="1">
          <mxGeometry x="600" y="220" width="20" height="20" as="geometry" />
        </mxCell>
        <mxCell id="wA9x3qdydGXnw0zg_fOg-13" value="" style="endArrow=none;dashed=1;html=1;rounded=0;strokeWidth=3;fontStyle=1" parent="1" edge="1">
          <mxGeometry width="50" height="50" relative="1" as="geometry">
            <mxPoint x="560" y="130" as="sourcePoint" />
            <mxPoint x="560" y="80" as="targetPoint" />
          </mxGeometry>
        </mxCell>
        <mxCell id="wA9x3qdydGXnw0zg_fOg-14" value="" style="endArrow=none;dashed=1;html=1;rounded=0;strokeWidth=3;fontStyle=1" parent="1" edge="1">
          <mxGeometry width="50" height="50" relative="1" as="geometry">
            <mxPoint x="520" y="130" as="sourcePoint" />
            <mxPoint x="560" y="130" as="targetPoint" />
          </mxGeometry>
        </mxCell>
        <mxCell id="wA9x3qdydGXnw0zg_fOg-15" value="" style="endArrow=none;dashed=1;html=1;rounded=0;strokeWidth=3;fontStyle=1" parent="1" edge="1">
          <mxGeometry width="50" height="50" relative="1" as="geometry">
            <mxPoint x="520" y="130" as="sourcePoint" />
            <mxPoint x="520" y="80" as="targetPoint" />
          </mxGeometry>
        </mxCell>
        <mxCell id="wA9x3qdydGXnw0zg_fOg-16" value="" style="rounded=0;whiteSpace=wrap;html=1;fillColor=#0A0A0A;strokeWidth=3;fontStyle=1" parent="1" vertex="1">
          <mxGeometry x="600" y="260" width="20" height="20" as="geometry" />
        </mxCell>
        <mxCell id="wA9x3qdydGXnw0zg_fOg-17" value="" style="endArrow=none;dashed=1;html=1;rounded=0;strokeWidth=3;fontStyle=1" parent="1" edge="1">
          <mxGeometry width="50" height="50" relative="1" as="geometry">
            <mxPoint x="590" y="290" as="sourcePoint" />
            <mxPoint x="630" y="290" as="targetPoint" />
          </mxGeometry>
        </mxCell>
        <mxCell id="wA9x3qdydGXnw0zg_fOg-18" value="" style="endArrow=none;dashed=1;html=1;rounded=0;strokeWidth=3;fontStyle=1" parent="1" edge="1">
          <mxGeometry width="50" height="50" relative="1" as="geometry">
            <mxPoint x="520" y="300" as="sourcePoint" />
            <mxPoint x="560" y="300" as="targetPoint" />
          </mxGeometry>
        </mxCell>
        <mxCell id="wA9x3qdydGXnw0zg_fOg-19" value="" style="endArrow=none;dashed=1;html=1;rounded=0;strokeWidth=3;fontStyle=1" parent="1" edge="1">
          <mxGeometry width="50" height="50" relative="1" as="geometry">
            <mxPoint x="560" y="340" as="sourcePoint" />
            <mxPoint x="560" y="300" as="targetPoint" />
          </mxGeometry>
        </mxCell>
        <mxCell id="wA9x3qdydGXnw0zg_fOg-20" value="" style="endArrow=none;dashed=1;html=1;rounded=0;strokeWidth=3;fontStyle=1" parent="1" edge="1">
          <mxGeometry width="50" height="50" relative="1" as="geometry">
            <mxPoint x="520" y="340" as="sourcePoint" />
            <mxPoint x="520" y="300" as="targetPoint" />
          </mxGeometry>
        </mxCell>
        <mxCell id="wA9x3qdydGXnw0zg_fOg-21" value="" style="rounded=0;whiteSpace=wrap;html=1;fillColor=#0A0A0A;strokeWidth=3;fontStyle=1" parent="1" vertex="1">
          <mxGeometry x="530" y="310" width="20" height="20" as="geometry" />
        </mxCell>
        <mxCell id="wA9x3qdydGXnw0zg_fOg-22" value="" style="endArrow=none;dashed=1;html=1;rounded=0;strokeWidth=3;fontStyle=1" parent="1" edge="1">
          <mxGeometry width="50" height="50" relative="1" as="geometry">
            <mxPoint x="520" y="340" as="sourcePoint" />
            <mxPoint x="530" y="340" as="targetPoint" />
          </mxGeometry>
        </mxCell>
        <mxCell id="wA9x3qdydGXnw0zg_fOg-23" value="" style="endArrow=none;dashed=1;html=1;rounded=0;strokeWidth=3;fontStyle=1" parent="1" edge="1">
          <mxGeometry width="50" height="50" relative="1" as="geometry">
            <mxPoint x="550" y="340" as="sourcePoint" />
            <mxPoint x="560" y="340" as="targetPoint" />
          </mxGeometry>
        </mxCell>
        <mxCell id="wA9x3qdydGXnw0zg_fOg-24" value="" style="endArrow=none;dashed=1;html=1;rounded=0;strokeWidth=3;fontStyle=1" parent="1" edge="1">
          <mxGeometry width="50" height="50" relative="1" as="geometry">
            <mxPoint x="530" y="430" as="sourcePoint" />
            <mxPoint x="530" y="340" as="targetPoint" />
          </mxGeometry>
        </mxCell>
        <mxCell id="wA9x3qdydGXnw0zg_fOg-27" value="" style="endArrow=none;dashed=1;html=1;dashPattern=1 3;strokeWidth=3;rounded=0;strokeColor=#00FF00;fontStyle=1" parent="1" edge="1">
          <mxGeometry width="50" height="50" relative="1" as="geometry">
            <mxPoint x="520" y="90" as="sourcePoint" />
            <mxPoint x="560" y="90" as="targetPoint" />
          </mxGeometry>
        </mxCell>
        <mxCell id="wA9x3qdydGXnw0zg_fOg-28" value="" style="endArrow=none;dashed=1;html=1;dashPattern=1 3;strokeWidth=3;rounded=0;strokeColor=#00FF00;fontStyle=1;startArrow=none;" parent="1" edge="1">
          <mxGeometry width="50" height="50" relative="1" as="geometry">
            <mxPoint x="520" y="260" as="sourcePoint" />
            <mxPoint x="520" y="120" as="targetPoint" />
          </mxGeometry>
        </mxCell>
        <mxCell id="wA9x3qdydGXnw0zg_fOg-29" value="" style="endArrow=none;dashed=1;html=1;dashPattern=1 3;strokeWidth=3;rounded=0;strokeColor=#00FF00;fontStyle=1" parent="1" edge="1">
          <mxGeometry width="50" height="50" relative="1" as="geometry">
            <mxPoint x="560" y="340" as="sourcePoint" />
            <mxPoint x="560" y="90" as="targetPoint" />
          </mxGeometry>
        </mxCell>
        <mxCell id="wA9x3qdydGXnw0zg_fOg-30" value="" style="endArrow=none;dashed=1;html=1;dashPattern=1 3;strokeWidth=3;rounded=0;strokeColor=#00FF00;fontStyle=1" parent="1" edge="1">
          <mxGeometry width="50" height="50" relative="1" as="geometry">
            <mxPoint x="520" y="340" as="sourcePoint" />
            <mxPoint x="560" y="340" as="targetPoint" />
          </mxGeometry>
        </mxCell>
        <mxCell id="wA9x3qdydGXnw0zg_fOg-31" value="" style="endArrow=none;dashed=1;html=1;rounded=0;strokeWidth=3;fontStyle=1" parent="1" edge="1">
          <mxGeometry width="50" height="50" relative="1" as="geometry">
            <mxPoint x="550" y="370" as="sourcePoint" />
            <mxPoint x="550.33" y="340" as="targetPoint" />
          </mxGeometry>
        </mxCell>
        <mxCell id="wA9x3qdydGXnw0zg_fOg-33" value="" style="endArrow=none;html=1;rounded=0;strokeColor=#FF0000;strokeWidth=3;fontStyle=1" parent="1" edge="1">
          <mxGeometry width="50" height="50" relative="1" as="geometry">
            <mxPoint x="500" y="130" as="sourcePoint" />
            <mxPoint x="630" y="130" as="targetPoint" />
          </mxGeometry>
        </mxCell>
        <mxCell id="wA9x3qdydGXnw0zg_fOg-34" value="" style="endArrow=none;html=1;rounded=0;strokeColor=#FF0000;strokeWidth=3;fontStyle=1" parent="1" edge="1">
          <mxGeometry width="50" height="50" relative="1" as="geometry">
            <mxPoint x="630" y="290" as="sourcePoint" />
            <mxPoint x="630" y="130" as="targetPoint" />
          </mxGeometry>
        </mxCell>
        <mxCell id="wA9x3qdydGXnw0zg_fOg-35" value="" style="endArrow=none;html=1;rounded=0;strokeColor=#FF0000;strokeWidth=3;fontStyle=1" parent="1" edge="1">
          <mxGeometry width="50" height="50" relative="1" as="geometry">
            <mxPoint x="500" y="290" as="sourcePoint" />
            <mxPoint x="630" y="290" as="targetPoint" />
          </mxGeometry>
        </mxCell>
        <mxCell id="wA9x3qdydGXnw0zg_fOg-36" value="" style="endArrow=none;html=1;rounded=0;strokeColor=#FF0000;strokeWidth=3;fontStyle=1" parent="1" edge="1">
          <mxGeometry width="50" height="50" relative="1" as="geometry">
            <mxPoint x="499.58" y="290" as="sourcePoint" />
            <mxPoint x="499.58" y="130" as="targetPoint" />
          </mxGeometry>
        </mxCell>
        <mxCell id="wA9x3qdydGXnw0zg_fOg-37" value="" style="endArrow=none;dashed=1;html=1;rounded=0;strokeColor=#0A0A0A;strokeWidth=3;fontStyle=1" parent="1" edge="1">
          <mxGeometry width="50" height="50" relative="1" as="geometry">
            <mxPoint x="550" y="370" as="sourcePoint" />
            <mxPoint x="610" y="370" as="targetPoint" />
          </mxGeometry>
        </mxCell>
        <mxCell id="wA9x3qdydGXnw0zg_fOg-38" value="" style="endArrow=none;dashed=1;html=1;rounded=0;strokeColor=#0A0A0A;strokeWidth=3;fontStyle=1" parent="1" edge="1">
          <mxGeometry width="50" height="50" relative="1" as="geometry">
            <mxPoint x="550" y="400" as="sourcePoint" />
            <mxPoint x="610" y="400" as="targetPoint" />
          </mxGeometry>
        </mxCell>
        <mxCell id="wA9x3qdydGXnw0zg_fOg-39" value="" style="endArrow=none;dashed=1;html=1;rounded=0;strokeColor=#0A0A0A;strokeWidth=3;fontStyle=1" parent="1" edge="1">
          <mxGeometry width="50" height="50" relative="1" as="geometry">
            <mxPoint x="550" y="430" as="sourcePoint" />
            <mxPoint x="600" y="430" as="targetPoint" />
          </mxGeometry>
        </mxCell>
        <mxCell id="wA9x3qdydGXnw0zg_fOg-40" value="" style="endArrow=none;dashed=1;html=1;rounded=0;strokeColor=#0A0A0A;strokeWidth=3;fontStyle=1" parent="1" edge="1">
          <mxGeometry width="50" height="50" relative="1" as="geometry">
            <mxPoint x="480" y="430" as="sourcePoint" />
            <mxPoint x="530" y="430" as="targetPoint" />
          </mxGeometry>
        </mxCell>
        <mxCell id="wA9x3qdydGXnw0zg_fOg-41" value="" style="endArrow=none;dashed=1;html=1;rounded=0;strokeColor=#0A0A0A;strokeWidth=3;fontStyle=1" parent="1" edge="1">
          <mxGeometry width="50" height="50" relative="1" as="geometry">
            <mxPoint x="600" y="470" as="sourcePoint" />
            <mxPoint x="600" y="430" as="targetPoint" />
          </mxGeometry>
        </mxCell>
        <mxCell id="wA9x3qdydGXnw0zg_fOg-42" value="" style="endArrow=none;dashed=1;html=1;rounded=0;strokeColor=#0A0A0A;strokeWidth=3;fontStyle=1" parent="1" edge="1">
          <mxGeometry width="50" height="50" relative="1" as="geometry">
            <mxPoint x="480" y="470" as="sourcePoint" />
            <mxPoint x="480" y="430" as="targetPoint" />
          </mxGeometry>
        </mxCell>
        <mxCell id="wA9x3qdydGXnw0zg_fOg-43" value="" style="endArrow=none;dashed=1;html=1;rounded=0;strokeColor=#0A0A0A;strokeWidth=3;fontStyle=1" parent="1" edge="1">
          <mxGeometry width="50" height="50" relative="1" as="geometry">
            <mxPoint x="480" y="500" as="sourcePoint" />
            <mxPoint x="600" y="500" as="targetPoint" />
          </mxGeometry>
        </mxCell>
        <mxCell id="wA9x3qdydGXnw0zg_fOg-44" value="" style="rounded=0;whiteSpace=wrap;html=1;fillColor=#0A0A0A;strokeWidth=3;fontStyle=1" parent="1" vertex="1">
          <mxGeometry x="490" y="440" width="20" height="20" as="geometry" />
        </mxCell>
        <mxCell id="wA9x3qdydGXnw0zg_fOg-45" value="" style="rounded=0;whiteSpace=wrap;html=1;fillColor=#0A0A0A;strokeWidth=3;fontStyle=1" parent="1" vertex="1">
          <mxGeometry x="530" y="440" width="20" height="20" as="geometry" />
        </mxCell>
        <mxCell id="wA9x3qdydGXnw0zg_fOg-46" value="" style="rounded=0;whiteSpace=wrap;html=1;fillColor=#0A0A0A;strokeWidth=3;fontStyle=1" parent="1" vertex="1">
          <mxGeometry x="570" y="440" width="20" height="20" as="geometry" />
        </mxCell>
        <mxCell id="wA9x3qdydGXnw0zg_fOg-47" value="" style="endArrow=none;dashed=1;html=1;rounded=0;strokeColor=#0A0A0A;strokeWidth=3;fontStyle=1" parent="1" edge="1">
          <mxGeometry width="50" height="50" relative="1" as="geometry">
            <mxPoint x="480" y="470" as="sourcePoint" />
            <mxPoint x="600" y="470" as="targetPoint" />
          </mxGeometry>
        </mxCell>
        <mxCell id="wA9x3qdydGXnw0zg_fOg-48" value="" style="endArrow=none;dashed=1;html=1;rounded=0;strokeColor=#0A0A0A;strokeWidth=3;fontStyle=1" parent="1" edge="1">
          <mxGeometry width="50" height="50" relative="1" as="geometry">
            <mxPoint x="480" y="500" as="sourcePoint" />
            <mxPoint x="480" y="540" as="targetPoint" />
          </mxGeometry>
        </mxCell>
        <mxCell id="wA9x3qdydGXnw0zg_fOg-49" value="" style="endArrow=none;dashed=1;html=1;rounded=0;strokeColor=#0A0A0A;strokeWidth=3;fontStyle=1" parent="1" edge="1">
          <mxGeometry width="50" height="50" relative="1" as="geometry">
            <mxPoint x="600" y="540" as="sourcePoint" />
            <mxPoint x="600" y="500" as="targetPoint" />
          </mxGeometry>
        </mxCell>
        <mxCell id="wA9x3qdydGXnw0zg_fOg-50" value="" style="endArrow=none;dashed=1;html=1;rounded=0;strokeColor=#0A0A0A;strokeWidth=3;fontStyle=1" parent="1" edge="1">
          <mxGeometry width="50" height="50" relative="1" as="geometry">
            <mxPoint x="480" y="539.6700000000001" as="sourcePoint" />
            <mxPoint x="530" y="540.34" as="targetPoint" />
          </mxGeometry>
        </mxCell>
        <mxCell id="wA9x3qdydGXnw0zg_fOg-51" value="" style="endArrow=none;dashed=1;html=1;rounded=0;strokeColor=#0A0A0A;strokeWidth=3;fontStyle=1" parent="1" edge="1">
          <mxGeometry width="50" height="50" relative="1" as="geometry">
            <mxPoint x="550" y="539.76" as="sourcePoint" />
            <mxPoint x="600" y="539.76" as="targetPoint" />
          </mxGeometry>
        </mxCell>
        <mxCell id="wA9x3qdydGXnw0zg_fOg-52" value="" style="endArrow=none;dashed=1;html=1;rounded=0;strokeColor=#0A0A0A;strokeWidth=3;fontStyle=1" parent="1" edge="1">
          <mxGeometry width="50" height="50" relative="1" as="geometry">
            <mxPoint x="550" y="570" as="sourcePoint" />
            <mxPoint x="550" y="540" as="targetPoint" />
          </mxGeometry>
        </mxCell>
        <mxCell id="wA9x3qdydGXnw0zg_fOg-53" value="" style="endArrow=none;dashed=1;html=1;rounded=0;strokeColor=#0A0A0A;strokeWidth=3;fontStyle=1" parent="1" edge="1">
          <mxGeometry width="50" height="50" relative="1" as="geometry">
            <mxPoint x="529.51" y="570" as="sourcePoint" />
            <mxPoint x="529.51" y="540" as="targetPoint" />
          </mxGeometry>
        </mxCell>
        <mxCell id="wA9x3qdydGXnw0zg_fOg-54" value="" style="rounded=0;whiteSpace=wrap;html=1;fillColor=#0A0A0A;strokeWidth=3;fontStyle=1" parent="1" vertex="1">
          <mxGeometry x="530" y="510" width="20" height="20" as="geometry" />
        </mxCell>
        <mxCell id="wA9x3qdydGXnw0zg_fOg-55" value="" style="rounded=0;whiteSpace=wrap;html=1;fillColor=#0A0A0A;strokeWidth=3;fontStyle=1" parent="1" vertex="1">
          <mxGeometry x="490" y="510" width="20" height="20" as="geometry" />
        </mxCell>
        <mxCell id="wA9x3qdydGXnw0zg_fOg-56" value="" style="rounded=0;whiteSpace=wrap;html=1;fillColor=#0A0A0A;strokeWidth=3;fontStyle=1" parent="1" vertex="1">
          <mxGeometry x="570" y="510" width="20" height="20" as="geometry" />
        </mxCell>
        <mxCell id="wA9x3qdydGXnw0zg_fOg-58" value="" style="endArrow=none;dashed=1;html=1;dashPattern=1 3;strokeWidth=3;rounded=0;strokeColor=#00FF00;fontStyle=1" parent="1" edge="1">
          <mxGeometry width="50" height="50" relative="1" as="geometry">
            <mxPoint x="480" y="541" as="sourcePoint" />
            <mxPoint x="480" y="431" as="targetPoint" />
          </mxGeometry>
        </mxCell>
        <mxCell id="wA9x3qdydGXnw0zg_fOg-59" value="" style="endArrow=none;dashed=1;html=1;dashPattern=1 3;strokeWidth=3;rounded=0;strokeColor=#00FF00;fontStyle=1" parent="1" edge="1">
          <mxGeometry width="50" height="50" relative="1" as="geometry">
            <mxPoint x="600" y="541" as="sourcePoint" />
            <mxPoint x="600" y="431" as="targetPoint" />
          </mxGeometry>
        </mxCell>
        <mxCell id="wA9x3qdydGXnw0zg_fOg-60" value="" style="endArrow=none;dashed=1;html=1;dashPattern=1 3;strokeWidth=3;rounded=0;strokeColor=#00FF00;fontStyle=1" parent="1" edge="1">
          <mxGeometry width="50" height="50" relative="1" as="geometry">
            <mxPoint x="600" y="430" as="sourcePoint" />
            <mxPoint x="480" y="430" as="targetPoint" />
          </mxGeometry>
        </mxCell>
        <mxCell id="wA9x3qdydGXnw0zg_fOg-61" value="" style="endArrow=none;dashed=1;html=1;dashPattern=1 3;strokeWidth=3;rounded=0;strokeColor=#00FF00;fontStyle=1;startArrow=none;" parent="1" edge="1" source="Iao7G-9x4Am7MKOK6cD3-99">
          <mxGeometry width="50" height="50" relative="1" as="geometry">
            <mxPoint x="600" y="540" as="sourcePoint" />
            <mxPoint x="480" y="540" as="targetPoint" />
          </mxGeometry>
        </mxCell>
        <mxCell id="wA9x3qdydGXnw0zg_fOg-62" value="" style="endArrow=none;html=1;rounded=0;strokeColor=#FF0000;strokeWidth=3;fontStyle=1" parent="1" edge="1">
          <mxGeometry width="50" height="50" relative="1" as="geometry">
            <mxPoint x="450" y="475" as="sourcePoint" />
            <mxPoint x="620" y="475" as="targetPoint" />
          </mxGeometry>
        </mxCell>
        <mxCell id="wA9x3qdydGXnw0zg_fOg-64" value="" style="endArrow=none;html=1;rounded=0;strokeColor=#FF0000;strokeWidth=3;fontStyle=1" parent="1" edge="1">
          <mxGeometry width="50" height="50" relative="1" as="geometry">
            <mxPoint x="450" y="495" as="sourcePoint" />
            <mxPoint x="620" y="495" as="targetPoint" />
          </mxGeometry>
        </mxCell>
        <mxCell id="wA9x3qdydGXnw0zg_fOg-65" value="" style="endArrow=none;html=1;rounded=0;strokeColor=#FF0000;strokeWidth=3;fontStyle=1" parent="1" edge="1">
          <mxGeometry width="50" height="50" relative="1" as="geometry">
            <mxPoint x="620.29" y="485" as="sourcePoint" />
            <mxPoint x="620.29" y="475" as="targetPoint" />
            <Array as="points">
              <mxPoint x="620.29" y="495" />
            </Array>
          </mxGeometry>
        </mxCell>
        <mxCell id="wA9x3qdydGXnw0zg_fOg-67" value="" style="endArrow=none;html=1;rounded=0;strokeColor=#FF0000;strokeWidth=3;fontStyle=1" parent="1" edge="1">
          <mxGeometry width="50" height="50" relative="1" as="geometry">
            <mxPoint x="450" y="476" as="sourcePoint" />
            <mxPoint x="450" y="466" as="targetPoint" />
          </mxGeometry>
        </mxCell>
        <mxCell id="wA9x3qdydGXnw0zg_fOg-68" value="" style="endArrow=none;html=1;rounded=0;strokeColor=#FF0000;strokeWidth=3;fontStyle=1" parent="1" edge="1">
          <mxGeometry width="50" height="50" relative="1" as="geometry">
            <mxPoint x="450" y="505" as="sourcePoint" />
            <mxPoint x="450" y="495" as="targetPoint" />
          </mxGeometry>
        </mxCell>
        <mxCell id="wA9x3qdydGXnw0zg_fOg-69" value="" style="endArrow=none;html=1;rounded=0;strokeColor=#FF0000;strokeWidth=3;fontStyle=1" parent="1" edge="1">
          <mxGeometry width="50" height="50" relative="1" as="geometry">
            <mxPoint x="410" y="465" as="sourcePoint" />
            <mxPoint x="450" y="465" as="targetPoint" />
          </mxGeometry>
        </mxCell>
        <mxCell id="wA9x3qdydGXnw0zg_fOg-70" value="" style="endArrow=none;html=1;rounded=0;strokeColor=#FF0000;strokeWidth=3;fontStyle=1" parent="1" edge="1">
          <mxGeometry width="50" height="50" relative="1" as="geometry">
            <mxPoint x="410" y="506.29" as="sourcePoint" />
            <mxPoint x="450" y="506.29" as="targetPoint" />
          </mxGeometry>
        </mxCell>
        <mxCell id="wA9x3qdydGXnw0zg_fOg-71" value="" style="endArrow=none;html=1;rounded=0;strokeColor=#FF0000;strokeWidth=3;fontStyle=1" parent="1" edge="1">
          <mxGeometry width="50" height="50" relative="1" as="geometry">
            <mxPoint x="410" y="466" as="sourcePoint" />
            <mxPoint x="410" y="506" as="targetPoint" />
          </mxGeometry>
        </mxCell>
        <mxCell id="wA9x3qdydGXnw0zg_fOg-72" value="" style="rounded=0;whiteSpace=wrap;html=1;fillColor=#0A0A0A;strokeWidth=3;fontStyle=1" parent="1" vertex="1">
          <mxGeometry x="420" y="476" width="20" height="20" as="geometry" />
        </mxCell>
        <mxCell id="wA9x3qdydGXnw0zg_fOg-74" value="" style="endArrow=none;dashed=1;html=1;rounded=0;strokeColor=#0A0A0A;strokeWidth=3;fontStyle=1" parent="1" edge="1">
          <mxGeometry width="50" height="50" relative="1" as="geometry">
            <mxPoint x="550" y="570" as="sourcePoint" />
            <mxPoint x="620" y="570" as="targetPoint" />
          </mxGeometry>
        </mxCell>
        <mxCell id="wA9x3qdydGXnw0zg_fOg-75" value="" style="endArrow=none;dashed=1;html=1;rounded=0;strokeColor=#0A0A0A;strokeWidth=3;fontStyle=1" parent="1" edge="1">
          <mxGeometry width="50" height="50" relative="1" as="geometry">
            <mxPoint x="620" y="600" as="sourcePoint" />
            <mxPoint x="620" y="570" as="targetPoint" />
          </mxGeometry>
        </mxCell>
        <mxCell id="wA9x3qdydGXnw0zg_fOg-76" value="" style="endArrow=none;dashed=1;html=1;rounded=0;strokeColor=#0A0A0A;strokeWidth=3;fontStyle=1" parent="1" edge="1">
          <mxGeometry width="50" height="50" relative="1" as="geometry">
            <mxPoint x="-50" y="600" as="sourcePoint" />
            <mxPoint x="620" y="600" as="targetPoint" />
          </mxGeometry>
        </mxCell>
        <mxCell id="wA9x3qdydGXnw0zg_fOg-77" value="" style="endArrow=none;dashed=1;html=1;rounded=0;strokeColor=#0A0A0A;strokeWidth=3;fontStyle=1" parent="1" edge="1">
          <mxGeometry width="50" height="50" relative="1" as="geometry">
            <mxPoint x="-50" y="570" as="sourcePoint" />
            <mxPoint x="70" y="570" as="targetPoint" />
          </mxGeometry>
        </mxCell>
        <mxCell id="wA9x3qdydGXnw0zg_fOg-78" value="" style="endArrow=none;dashed=1;html=1;rounded=0;strokeColor=#0A0A0A;strokeWidth=3;fontStyle=1" parent="1" edge="1">
          <mxGeometry width="50" height="50" relative="1" as="geometry">
            <mxPoint x="410" y="507" as="sourcePoint" />
            <mxPoint x="410" y="400" as="targetPoint" />
          </mxGeometry>
        </mxCell>
        <mxCell id="wA9x3qdydGXnw0zg_fOg-79" value="" style="endArrow=none;dashed=1;html=1;rounded=0;strokeColor=#0A0A0A;strokeWidth=3;fontStyle=1" parent="1" edge="1">
          <mxGeometry width="50" height="50" relative="1" as="geometry">
            <mxPoint x="450" y="507" as="sourcePoint" />
            <mxPoint x="450" y="380" as="targetPoint" />
          </mxGeometry>
        </mxCell>
        <mxCell id="wA9x3qdydGXnw0zg_fOg-81" value="" style="endArrow=none;dashed=1;html=1;rounded=0;strokeColor=#0A0A0A;strokeWidth=3;fontStyle=1" parent="1" edge="1">
          <mxGeometry width="50" height="50" relative="1" as="geometry">
            <mxPoint x="410" y="507" as="sourcePoint" />
            <mxPoint x="450" y="507" as="targetPoint" />
          </mxGeometry>
        </mxCell>
        <mxCell id="wA9x3qdydGXnw0zg_fOg-83" value="" style="endArrow=none;html=1;rounded=0;strokeColor=#FF0000;strokeWidth=3;fontStyle=1" parent="1" edge="1">
          <mxGeometry width="50" height="50" relative="1" as="geometry">
            <mxPoint x="220" y="475" as="sourcePoint" />
            <mxPoint x="390" y="475" as="targetPoint" />
          </mxGeometry>
        </mxCell>
        <mxCell id="wA9x3qdydGXnw0zg_fOg-84" value="" style="endArrow=none;html=1;rounded=0;strokeColor=#FF0000;strokeWidth=3;fontStyle=1" parent="1" edge="1">
          <mxGeometry width="50" height="50" relative="1" as="geometry">
            <mxPoint x="219.99999999999977" y="495.0000000000001" as="sourcePoint" />
            <mxPoint x="390" y="495.0000000000001" as="targetPoint" />
          </mxGeometry>
        </mxCell>
        <mxCell id="wA9x3qdydGXnw0zg_fOg-85" value="" style="endArrow=none;html=1;rounded=0;strokeColor=#FF0000;strokeWidth=3;fontStyle=1" parent="1" edge="1">
          <mxGeometry width="50" height="50" relative="1" as="geometry">
            <mxPoint x="389.28999999999996" y="485" as="sourcePoint" />
            <mxPoint x="389.28999999999996" y="475" as="targetPoint" />
            <Array as="points">
              <mxPoint x="389.28999999999996" y="495" />
            </Array>
          </mxGeometry>
        </mxCell>
        <mxCell id="wA9x3qdydGXnw0zg_fOg-86" value="" style="endArrow=none;html=1;rounded=0;strokeColor=#FF0000;strokeWidth=3;fontStyle=1" parent="1" edge="1">
          <mxGeometry width="50" height="50" relative="1" as="geometry">
            <mxPoint x="220" y="506" as="sourcePoint" />
            <mxPoint x="220" y="496" as="targetPoint" />
          </mxGeometry>
        </mxCell>
        <mxCell id="wA9x3qdydGXnw0zg_fOg-87" value="" style="endArrow=none;html=1;rounded=0;strokeColor=#FF0000;strokeWidth=3;fontStyle=1" parent="1" edge="1">
          <mxGeometry width="50" height="50" relative="1" as="geometry">
            <mxPoint x="219.99999999999977" y="476" as="sourcePoint" />
            <mxPoint x="219.99999999999977" y="466" as="targetPoint" />
          </mxGeometry>
        </mxCell>
        <mxCell id="wA9x3qdydGXnw0zg_fOg-88" value="" style="endArrow=none;html=1;rounded=0;strokeColor=#FF0000;strokeWidth=3;fontStyle=1" parent="1" edge="1">
          <mxGeometry width="50" height="50" relative="1" as="geometry">
            <mxPoint x="180" y="467" as="sourcePoint" />
            <mxPoint x="220" y="467" as="targetPoint" />
          </mxGeometry>
        </mxCell>
        <mxCell id="wA9x3qdydGXnw0zg_fOg-89" value="" style="endArrow=none;html=1;rounded=0;strokeColor=#FF0000;strokeWidth=3;fontStyle=1" parent="1" edge="1">
          <mxGeometry width="50" height="50" relative="1" as="geometry">
            <mxPoint x="180" y="507" as="sourcePoint" />
            <mxPoint x="180" y="468" as="targetPoint" />
          </mxGeometry>
        </mxCell>
        <mxCell id="wA9x3qdydGXnw0zg_fOg-90" value="" style="endArrow=none;html=1;rounded=0;strokeColor=#FF0000;strokeWidth=3;fontStyle=1" parent="1" edge="1">
          <mxGeometry width="50" height="50" relative="1" as="geometry">
            <mxPoint x="220" y="507" as="sourcePoint" />
            <mxPoint x="180" y="507" as="targetPoint" />
          </mxGeometry>
        </mxCell>
        <mxCell id="wA9x3qdydGXnw0zg_fOg-91" value="" style="rounded=0;whiteSpace=wrap;html=1;fillColor=#0A0A0A;strokeWidth=3;fontStyle=1" parent="1" vertex="1">
          <mxGeometry x="190" y="476" width="20" height="20" as="geometry" />
        </mxCell>
        <mxCell id="wA9x3qdydGXnw0zg_fOg-92" value="" style="endArrow=none;dashed=1;html=1;dashPattern=1 3;strokeWidth=3;rounded=0;strokeColor=#00FF00;fontStyle=1" parent="1" edge="1">
          <mxGeometry width="50" height="50" relative="1" as="geometry">
            <mxPoint x="250" y="541" as="sourcePoint" />
            <mxPoint x="250" y="431" as="targetPoint" />
          </mxGeometry>
        </mxCell>
        <mxCell id="wA9x3qdydGXnw0zg_fOg-93" value="" style="endArrow=none;dashed=1;html=1;dashPattern=1 3;strokeWidth=3;rounded=0;strokeColor=#00FF00;fontStyle=1" parent="1" edge="1">
          <mxGeometry width="50" height="50" relative="1" as="geometry">
            <mxPoint x="250" y="430" as="sourcePoint" />
            <mxPoint x="370" y="430" as="targetPoint" />
          </mxGeometry>
        </mxCell>
        <mxCell id="wA9x3qdydGXnw0zg_fOg-95" value="" style="endArrow=none;dashed=1;html=1;dashPattern=1 3;strokeWidth=3;rounded=0;strokeColor=#00FF00;fontStyle=1" parent="1" edge="1">
          <mxGeometry width="50" height="50" relative="1" as="geometry">
            <mxPoint x="370" y="541" as="sourcePoint" />
            <mxPoint x="370" y="431" as="targetPoint" />
          </mxGeometry>
        </mxCell>
        <mxCell id="wA9x3qdydGXnw0zg_fOg-98" value="" style="endArrow=none;dashed=1;html=1;dashPattern=1 3;strokeWidth=3;rounded=0;strokeColor=#00FF00;fontStyle=1" parent="1" edge="1">
          <mxGeometry width="50" height="50" relative="1" as="geometry">
            <mxPoint x="250" y="540" as="sourcePoint" />
            <mxPoint x="370" y="540" as="targetPoint" />
          </mxGeometry>
        </mxCell>
        <mxCell id="wA9x3qdydGXnw0zg_fOg-99" value="" style="rounded=0;whiteSpace=wrap;html=1;fillColor=#0A0A0A;strokeWidth=3;fontStyle=1" parent="1" vertex="1">
          <mxGeometry x="260" y="440" width="20" height="20" as="geometry" />
        </mxCell>
        <mxCell id="wA9x3qdydGXnw0zg_fOg-100" value="" style="rounded=0;whiteSpace=wrap;html=1;fillColor=#0A0A0A;strokeWidth=3;fontStyle=1" parent="1" vertex="1">
          <mxGeometry x="300" y="440" width="20" height="20" as="geometry" />
        </mxCell>
        <mxCell id="wA9x3qdydGXnw0zg_fOg-101" value="" style="rounded=0;whiteSpace=wrap;html=1;fillColor=#0A0A0A;strokeWidth=3;fontStyle=1" parent="1" vertex="1">
          <mxGeometry x="340" y="440" width="20" height="20" as="geometry" />
        </mxCell>
        <mxCell id="wA9x3qdydGXnw0zg_fOg-102" value="" style="rounded=0;whiteSpace=wrap;html=1;fillColor=#0A0A0A;strokeWidth=3;fontStyle=1" parent="1" vertex="1">
          <mxGeometry x="260" y="510" width="20" height="20" as="geometry" />
        </mxCell>
        <mxCell id="wA9x3qdydGXnw0zg_fOg-103" value="" style="rounded=0;whiteSpace=wrap;html=1;fillColor=#0A0A0A;strokeWidth=3;fontStyle=1" parent="1" vertex="1">
          <mxGeometry x="300" y="510" width="20" height="20" as="geometry" />
        </mxCell>
        <mxCell id="wA9x3qdydGXnw0zg_fOg-104" value="" style="rounded=0;whiteSpace=wrap;html=1;fillColor=#0A0A0A;strokeWidth=3;fontStyle=1" parent="1" vertex="1">
          <mxGeometry x="340" y="510" width="20" height="20" as="geometry" />
        </mxCell>
        <mxCell id="wA9x3qdydGXnw0zg_fOg-106" value="" style="endArrow=none;dashed=1;html=1;rounded=0;strokeColor=#0A0A0A;strokeWidth=3;fontStyle=1" parent="1" edge="1">
          <mxGeometry width="50" height="50" relative="1" as="geometry">
            <mxPoint x="180" y="540" as="sourcePoint" />
            <mxPoint x="180" y="466" as="targetPoint" />
          </mxGeometry>
        </mxCell>
        <mxCell id="wA9x3qdydGXnw0zg_fOg-107" value="" style="endArrow=none;dashed=1;html=1;rounded=0;strokeColor=#0A0A0A;strokeWidth=3;fontStyle=1" parent="1" edge="1">
          <mxGeometry width="50" height="50" relative="1" as="geometry">
            <mxPoint x="220" y="541" as="sourcePoint" />
            <mxPoint x="220" y="467" as="targetPoint" />
          </mxGeometry>
        </mxCell>
        <mxCell id="wA9x3qdydGXnw0zg_fOg-109" value="" style="endArrow=none;dashed=1;html=1;rounded=0;strokeColor=#0A0A0A;strokeWidth=3;fontStyle=1" parent="1" edge="1">
          <mxGeometry width="50" height="50" relative="1" as="geometry">
            <mxPoint x="180" y="467" as="sourcePoint" />
            <mxPoint x="220" y="467" as="targetPoint" />
          </mxGeometry>
        </mxCell>
        <mxCell id="wA9x3qdydGXnw0zg_fOg-110" value="" style="endArrow=none;dashed=1;html=1;rounded=0;strokeColor=#0A0A0A;strokeWidth=3;fontStyle=1" parent="1" edge="1">
          <mxGeometry width="50" height="50" relative="1" as="geometry">
            <mxPoint x="180" y="540" as="sourcePoint" />
            <mxPoint x="220" y="540" as="targetPoint" />
          </mxGeometry>
        </mxCell>
        <mxCell id="wA9x3qdydGXnw0zg_fOg-111" value="" style="endArrow=none;dashed=1;html=1;rounded=0;strokeColor=#0A0A0A;strokeWidth=3;fontStyle=1" parent="1" edge="1">
          <mxGeometry width="50" height="50" relative="1" as="geometry">
            <mxPoint x="250" y="470" as="sourcePoint" />
            <mxPoint x="370" y="470" as="targetPoint" />
          </mxGeometry>
        </mxCell>
        <mxCell id="wA9x3qdydGXnw0zg_fOg-112" value="" style="endArrow=none;dashed=1;html=1;rounded=0;strokeColor=#0A0A0A;strokeWidth=3;fontStyle=1" parent="1" edge="1">
          <mxGeometry width="50" height="50" relative="1" as="geometry">
            <mxPoint x="250" y="499.9999999999999" as="sourcePoint" />
            <mxPoint x="370" y="499.9999999999999" as="targetPoint" />
          </mxGeometry>
        </mxCell>
        <mxCell id="wA9x3qdydGXnw0zg_fOg-113" value="" style="endArrow=none;dashed=1;html=1;rounded=0;strokeColor=#0A0A0A;strokeWidth=3;fontStyle=1" parent="1" edge="1">
          <mxGeometry width="50" height="50" relative="1" as="geometry">
            <mxPoint x="250" y="539.9999999999999" as="sourcePoint" />
            <mxPoint x="300" y="540" as="targetPoint" />
          </mxGeometry>
        </mxCell>
        <mxCell id="wA9x3qdydGXnw0zg_fOg-115" value="" style="endArrow=none;dashed=1;html=1;rounded=0;strokeColor=#0A0A0A;strokeWidth=3;fontStyle=1" parent="1" edge="1">
          <mxGeometry width="50" height="50" relative="1" as="geometry">
            <mxPoint x="250" y="470" as="sourcePoint" />
            <mxPoint x="250" y="430" as="targetPoint" />
          </mxGeometry>
        </mxCell>
        <mxCell id="wA9x3qdydGXnw0zg_fOg-116" value="" style="endArrow=none;dashed=1;html=1;rounded=0;strokeColor=#0A0A0A;strokeWidth=3;fontStyle=1" parent="1" edge="1">
          <mxGeometry width="50" height="50" relative="1" as="geometry">
            <mxPoint x="370" y="470" as="sourcePoint" />
            <mxPoint x="370" y="430" as="targetPoint" />
          </mxGeometry>
        </mxCell>
        <mxCell id="wA9x3qdydGXnw0zg_fOg-117" value="" style="endArrow=none;dashed=1;html=1;rounded=0;strokeColor=#0A0A0A;strokeWidth=3;fontStyle=1" parent="1" edge="1">
          <mxGeometry width="50" height="50" relative="1" as="geometry">
            <mxPoint x="250" y="540" as="sourcePoint" />
            <mxPoint x="250" y="500" as="targetPoint" />
          </mxGeometry>
        </mxCell>
        <mxCell id="wA9x3qdydGXnw0zg_fOg-118" value="" style="endArrow=none;dashed=1;html=1;rounded=0;strokeColor=#0A0A0A;strokeWidth=3;fontStyle=1" parent="1" edge="1">
          <mxGeometry width="50" height="50" relative="1" as="geometry">
            <mxPoint x="370" y="540" as="sourcePoint" />
            <mxPoint x="370" y="500" as="targetPoint" />
          </mxGeometry>
        </mxCell>
        <mxCell id="wA9x3qdydGXnw0zg_fOg-119" value="" style="endArrow=none;dashed=1;html=1;rounded=0;strokeWidth=3;fontStyle=1" parent="1" edge="1">
          <mxGeometry width="50" height="50" relative="1" as="geometry">
            <mxPoint x="550" y="430" as="sourcePoint" />
            <mxPoint x="550.3299999999999" y="400" as="targetPoint" />
          </mxGeometry>
        </mxCell>
        <mxCell id="wA9x3qdydGXnw0zg_fOg-120" value="" style="endArrow=none;dashed=1;html=1;rounded=0;strokeColor=#0A0A0A;strokeWidth=3;fontStyle=1" parent="1" edge="1">
          <mxGeometry width="50" height="50" relative="1" as="geometry">
            <mxPoint x="250" y="430" as="sourcePoint" />
            <mxPoint x="300" y="430" as="targetPoint" />
          </mxGeometry>
        </mxCell>
        <mxCell id="wA9x3qdydGXnw0zg_fOg-121" value="" style="endArrow=none;dashed=1;html=1;rounded=0;strokeColor=#0A0A0A;strokeWidth=3;fontStyle=1" parent="1" edge="1">
          <mxGeometry width="50" height="50" relative="1" as="geometry">
            <mxPoint x="320" y="430" as="sourcePoint" />
            <mxPoint x="370" y="430" as="targetPoint" />
          </mxGeometry>
        </mxCell>
        <mxCell id="wA9x3qdydGXnw0zg_fOg-122" value="" style="endArrow=none;dashed=1;html=1;rounded=0;strokeColor=#0A0A0A;strokeWidth=3;fontStyle=1" parent="1" edge="1">
          <mxGeometry width="50" height="50" relative="1" as="geometry">
            <mxPoint x="300" y="430" as="sourcePoint" />
            <mxPoint x="300" y="400" as="targetPoint" />
          </mxGeometry>
        </mxCell>
        <mxCell id="wA9x3qdydGXnw0zg_fOg-123" value="" style="endArrow=none;dashed=1;html=1;rounded=0;strokeWidth=3;fontStyle=1" parent="1" edge="1">
          <mxGeometry width="50" height="50" relative="1" as="geometry">
            <mxPoint x="319.44" y="430" as="sourcePoint" />
            <mxPoint x="320" y="400" as="targetPoint" />
          </mxGeometry>
        </mxCell>
        <mxCell id="wA9x3qdydGXnw0zg_fOg-124" value="" style="endArrow=none;dashed=1;html=1;rounded=0;strokeColor=#0A0A0A;strokeWidth=3;fontStyle=1" parent="1" edge="1">
          <mxGeometry width="50" height="50" relative="1" as="geometry">
            <mxPoint x="320" y="400" as="sourcePoint" />
            <mxPoint x="410" y="400" as="targetPoint" />
          </mxGeometry>
        </mxCell>
        <mxCell id="wA9x3qdydGXnw0zg_fOg-125" value="" style="endArrow=none;dashed=1;html=1;rounded=0;strokeColor=#0A0A0A;strokeWidth=3;fontStyle=1" parent="1" edge="1">
          <mxGeometry width="50" height="50" relative="1" as="geometry">
            <mxPoint x="170" y="380" as="sourcePoint" />
            <mxPoint x="450" y="380" as="targetPoint" />
          </mxGeometry>
        </mxCell>
        <mxCell id="wA9x3qdydGXnw0zg_fOg-126" value="" style="endArrow=none;dashed=1;html=1;rounded=0;strokeColor=#0A0A0A;strokeWidth=3;fontStyle=1" parent="1" edge="1">
          <mxGeometry width="50" height="50" relative="1" as="geometry">
            <mxPoint x="90" y="400" as="sourcePoint" />
            <mxPoint x="300" y="400" as="targetPoint" />
          </mxGeometry>
        </mxCell>
        <mxCell id="wA9x3qdydGXnw0zg_fOg-128" value="" style="endArrow=none;html=1;rounded=0;strokeColor=#FF0000;strokeWidth=3;fontStyle=1" parent="1" edge="1">
          <mxGeometry width="50" height="50" relative="1" as="geometry">
            <mxPoint x="159.28999999999996" y="486" as="sourcePoint" />
            <mxPoint x="159.28999999999996" y="476" as="targetPoint" />
            <Array as="points">
              <mxPoint x="159.28999999999996" y="496" />
            </Array>
          </mxGeometry>
        </mxCell>
        <mxCell id="wA9x3qdydGXnw0zg_fOg-129" value="" style="endArrow=none;html=1;rounded=0;strokeColor=#FF0000;strokeWidth=3;fontStyle=1" parent="1" edge="1">
          <mxGeometry width="50" height="50" relative="1" as="geometry">
            <mxPoint x="-11.000000000000227" y="476" as="sourcePoint" />
            <mxPoint x="159" y="476" as="targetPoint" />
          </mxGeometry>
        </mxCell>
        <mxCell id="wA9x3qdydGXnw0zg_fOg-130" value="" style="endArrow=none;html=1;rounded=0;strokeColor=#FF0000;strokeWidth=3;fontStyle=1" parent="1" edge="1">
          <mxGeometry width="50" height="50" relative="1" as="geometry">
            <mxPoint x="-10.000000000000227" y="496.0000000000001" as="sourcePoint" />
            <mxPoint x="160" y="496.0000000000001" as="targetPoint" />
          </mxGeometry>
        </mxCell>
        <mxCell id="wA9x3qdydGXnw0zg_fOg-132" value="" style="endArrow=none;html=1;rounded=0;strokeColor=#FF0000;strokeWidth=3;fontStyle=1" parent="1" edge="1">
          <mxGeometry width="50" height="50" relative="1" as="geometry">
            <mxPoint x="-11" y="476" as="sourcePoint" />
            <mxPoint x="-11" y="466" as="targetPoint" />
          </mxGeometry>
        </mxCell>
        <mxCell id="wA9x3qdydGXnw0zg_fOg-133" value="" style="endArrow=none;html=1;rounded=0;strokeColor=#FF0000;strokeWidth=3;fontStyle=1" parent="1" edge="1">
          <mxGeometry width="50" height="50" relative="1" as="geometry">
            <mxPoint x="-10" y="506" as="sourcePoint" />
            <mxPoint x="-10" y="496" as="targetPoint" />
          </mxGeometry>
        </mxCell>
        <mxCell id="wA9x3qdydGXnw0zg_fOg-134" value="" style="endArrow=none;html=1;rounded=0;strokeColor=#FF0000;strokeWidth=3;fontStyle=1" parent="1" edge="1">
          <mxGeometry width="50" height="50" relative="1" as="geometry">
            <mxPoint x="-50" y="466" as="sourcePoint" />
            <mxPoint x="-10" y="466" as="targetPoint" />
          </mxGeometry>
        </mxCell>
        <mxCell id="wA9x3qdydGXnw0zg_fOg-135" value="" style="endArrow=none;html=1;rounded=0;strokeColor=#FF0000;strokeWidth=3;fontStyle=1" parent="1" edge="1">
          <mxGeometry width="50" height="50" relative="1" as="geometry">
            <mxPoint x="-50" y="466" as="sourcePoint" />
            <mxPoint x="-50" y="506" as="targetPoint" />
          </mxGeometry>
        </mxCell>
        <mxCell id="wA9x3qdydGXnw0zg_fOg-136" value="" style="endArrow=none;html=1;rounded=0;strokeColor=#FF0000;strokeWidth=3;fontStyle=1" parent="1" edge="1">
          <mxGeometry width="50" height="50" relative="1" as="geometry">
            <mxPoint x="-50" y="506" as="sourcePoint" />
            <mxPoint x="-10" y="506" as="targetPoint" />
          </mxGeometry>
        </mxCell>
        <mxCell id="wA9x3qdydGXnw0zg_fOg-137" value="" style="endArrow=none;dashed=1;html=1;rounded=0;strokeColor=#0A0A0A;strokeWidth=3;fontStyle=1" parent="1" edge="1">
          <mxGeometry width="50" height="50" relative="1" as="geometry">
            <mxPoint x="-50" y="539.9999999999999" as="sourcePoint" />
            <mxPoint x="-50" y="466" as="targetPoint" />
          </mxGeometry>
        </mxCell>
        <mxCell id="wA9x3qdydGXnw0zg_fOg-138" value="" style="endArrow=none;dashed=1;html=1;rounded=0;strokeColor=#0A0A0A;strokeWidth=3;fontStyle=1" parent="1" edge="1">
          <mxGeometry width="50" height="50" relative="1" as="geometry">
            <mxPoint x="-50" y="539.9999999999999" as="sourcePoint" />
            <mxPoint x="-10" y="539.9999999999999" as="targetPoint" />
          </mxGeometry>
        </mxCell>
        <mxCell id="wA9x3qdydGXnw0zg_fOg-139" value="" style="endArrow=none;dashed=1;html=1;rounded=0;strokeColor=#0A0A0A;strokeWidth=3;fontStyle=1" parent="1" edge="1">
          <mxGeometry width="50" height="50" relative="1" as="geometry">
            <mxPoint x="-11" y="541" as="sourcePoint" />
            <mxPoint x="-11" y="467" as="targetPoint" />
          </mxGeometry>
        </mxCell>
        <mxCell id="wA9x3qdydGXnw0zg_fOg-140" value="" style="endArrow=none;dashed=1;html=1;rounded=0;strokeColor=#0A0A0A;strokeWidth=3;fontStyle=1" parent="1" edge="1">
          <mxGeometry width="50" height="50" relative="1" as="geometry">
            <mxPoint x="-50" y="466" as="sourcePoint" />
            <mxPoint x="-10" y="466" as="targetPoint" />
          </mxGeometry>
        </mxCell>
        <mxCell id="wA9x3qdydGXnw0zg_fOg-141" value="" style="rounded=0;whiteSpace=wrap;html=1;fillColor=#0A0A0A;strokeWidth=3;fontStyle=1" parent="1" vertex="1">
          <mxGeometry x="-40" y="476" width="20" height="20" as="geometry" />
        </mxCell>
        <mxCell id="wA9x3qdydGXnw0zg_fOg-142" value="" style="endArrow=none;dashed=1;html=1;dashPattern=1 3;strokeWidth=3;rounded=0;strokeColor=#00FF00;fontStyle=1" parent="1" edge="1">
          <mxGeometry width="50" height="50" relative="1" as="geometry">
            <mxPoint x="20" y="541" as="sourcePoint" />
            <mxPoint x="20" y="431" as="targetPoint" />
          </mxGeometry>
        </mxCell>
        <mxCell id="wA9x3qdydGXnw0zg_fOg-143" value="" style="endArrow=none;dashed=1;html=1;dashPattern=1 3;strokeWidth=3;rounded=0;strokeColor=#00FF00;fontStyle=1" parent="1" edge="1">
          <mxGeometry width="50" height="50" relative="1" as="geometry">
            <mxPoint x="140" y="541" as="sourcePoint" />
            <mxPoint x="140" y="431" as="targetPoint" />
          </mxGeometry>
        </mxCell>
        <mxCell id="wA9x3qdydGXnw0zg_fOg-144" value="" style="endArrow=none;dashed=1;html=1;dashPattern=1 3;strokeWidth=3;rounded=0;strokeColor=#00FF00;fontStyle=1" parent="1" edge="1">
          <mxGeometry width="50" height="50" relative="1" as="geometry">
            <mxPoint x="20" y="430" as="sourcePoint" />
            <mxPoint x="140" y="430" as="targetPoint" />
          </mxGeometry>
        </mxCell>
        <mxCell id="wA9x3qdydGXnw0zg_fOg-145" value="" style="endArrow=none;dashed=1;html=1;dashPattern=1 3;strokeWidth=3;rounded=0;strokeColor=#00FF00;fontStyle=1" parent="1" edge="1">
          <mxGeometry width="50" height="50" relative="1" as="geometry">
            <mxPoint x="20" y="540" as="sourcePoint" />
            <mxPoint x="140" y="540" as="targetPoint" />
            <Array as="points">
              <mxPoint x="70" y="540" />
            </Array>
          </mxGeometry>
        </mxCell>
        <mxCell id="wA9x3qdydGXnw0zg_fOg-146" value="" style="endArrow=none;dashed=1;html=1;rounded=0;strokeColor=#0A0A0A;strokeWidth=3;fontStyle=1" parent="1" edge="1">
          <mxGeometry width="50" height="50" relative="1" as="geometry">
            <mxPoint x="20" y="470" as="sourcePoint" />
            <mxPoint x="20" y="430" as="targetPoint" />
          </mxGeometry>
        </mxCell>
        <mxCell id="wA9x3qdydGXnw0zg_fOg-148" value="" style="endArrow=none;dashed=1;html=1;rounded=0;strokeColor=#0A0A0A;strokeWidth=3;fontStyle=1" parent="1" edge="1">
          <mxGeometry width="50" height="50" relative="1" as="geometry">
            <mxPoint x="140" y="470" as="sourcePoint" />
            <mxPoint x="140" y="430" as="targetPoint" />
          </mxGeometry>
        </mxCell>
        <mxCell id="wA9x3qdydGXnw0zg_fOg-149" value="" style="endArrow=none;dashed=1;html=1;rounded=0;strokeColor=#0A0A0A;strokeWidth=3;fontStyle=1" parent="1" edge="1">
          <mxGeometry width="50" height="50" relative="1" as="geometry">
            <mxPoint x="20" y="540" as="sourcePoint" />
            <mxPoint x="20" y="500" as="targetPoint" />
          </mxGeometry>
        </mxCell>
        <mxCell id="wA9x3qdydGXnw0zg_fOg-150" value="" style="endArrow=none;dashed=1;html=1;rounded=0;strokeColor=#0A0A0A;strokeWidth=3;fontStyle=1" parent="1" edge="1">
          <mxGeometry width="50" height="50" relative="1" as="geometry">
            <mxPoint x="20" y="500" as="sourcePoint" />
            <mxPoint x="140" y="500" as="targetPoint" />
          </mxGeometry>
        </mxCell>
        <mxCell id="wA9x3qdydGXnw0zg_fOg-151" value="" style="endArrow=none;dashed=1;html=1;rounded=0;strokeColor=#0A0A0A;strokeWidth=3;fontStyle=1" parent="1" edge="1">
          <mxGeometry width="50" height="50" relative="1" as="geometry">
            <mxPoint x="19.999999999999773" y="470" as="sourcePoint" />
            <mxPoint x="140.00000000000023" y="470" as="targetPoint" />
          </mxGeometry>
        </mxCell>
        <mxCell id="wA9x3qdydGXnw0zg_fOg-152" value="" style="endArrow=none;dashed=1;html=1;rounded=0;strokeColor=#0A0A0A;strokeWidth=3;fontStyle=1" parent="1" edge="1">
          <mxGeometry width="50" height="50" relative="1" as="geometry">
            <mxPoint x="20" y="540" as="sourcePoint" />
            <mxPoint x="70" y="540" as="targetPoint" />
          </mxGeometry>
        </mxCell>
        <mxCell id="wA9x3qdydGXnw0zg_fOg-153" value="" style="endArrow=none;dashed=1;html=1;rounded=0;strokeColor=#0A0A0A;strokeWidth=3;fontStyle=1" parent="1" edge="1">
          <mxGeometry width="50" height="50" relative="1" as="geometry">
            <mxPoint x="140" y="540" as="sourcePoint" />
            <mxPoint x="140" y="500" as="targetPoint" />
          </mxGeometry>
        </mxCell>
        <mxCell id="wA9x3qdydGXnw0zg_fOg-154" value="" style="endArrow=none;dashed=1;html=1;rounded=0;strokeColor=#0A0A0A;strokeWidth=3;fontStyle=1" parent="1" edge="1">
          <mxGeometry width="50" height="50" relative="1" as="geometry">
            <mxPoint x="20" y="430" as="sourcePoint" />
            <mxPoint x="70" y="430" as="targetPoint" />
          </mxGeometry>
        </mxCell>
        <mxCell id="wA9x3qdydGXnw0zg_fOg-155" value="" style="endArrow=none;dashed=1;html=1;rounded=0;strokeColor=#0A0A0A;strokeWidth=3;fontStyle=1" parent="1" edge="1">
          <mxGeometry width="50" height="50" relative="1" as="geometry">
            <mxPoint x="90" y="430" as="sourcePoint" />
            <mxPoint x="140" y="430" as="targetPoint" />
          </mxGeometry>
        </mxCell>
        <mxCell id="wA9x3qdydGXnw0zg_fOg-156" value="" style="endArrow=none;dashed=1;html=1;rounded=0;strokeColor=#0A0A0A;strokeWidth=3;fontStyle=1" parent="1" edge="1">
          <mxGeometry width="50" height="50" relative="1" as="geometry">
            <mxPoint x="90" y="430" as="sourcePoint" />
            <mxPoint x="90" y="400" as="targetPoint" />
          </mxGeometry>
        </mxCell>
        <mxCell id="wA9x3qdydGXnw0zg_fOg-157" value="" style="endArrow=none;dashed=1;html=1;rounded=0;strokeColor=#0A0A0A;strokeWidth=3;fontStyle=1" parent="1" edge="1">
          <mxGeometry width="50" height="50" relative="1" as="geometry">
            <mxPoint x="70" y="430" as="sourcePoint" />
            <mxPoint x="70" y="380" as="targetPoint" />
          </mxGeometry>
        </mxCell>
        <mxCell id="wA9x3qdydGXnw0zg_fOg-159" value="" style="rounded=0;whiteSpace=wrap;html=1;fillColor=#0A0A0A;strokeWidth=3;fontStyle=1" parent="1" vertex="1">
          <mxGeometry x="30" y="440" width="20" height="20" as="geometry" />
        </mxCell>
        <mxCell id="wA9x3qdydGXnw0zg_fOg-160" value="" style="rounded=0;whiteSpace=wrap;html=1;fillColor=#0A0A0A;strokeWidth=3;fontStyle=1" parent="1" vertex="1">
          <mxGeometry x="150" y="340" width="20" height="20" as="geometry" />
        </mxCell>
        <mxCell id="wA9x3qdydGXnw0zg_fOg-161" value="" style="rounded=0;whiteSpace=wrap;html=1;fillColor=#0A0A0A;strokeWidth=3;fontStyle=1" parent="1" vertex="1">
          <mxGeometry x="110" y="440" width="20" height="20" as="geometry" />
        </mxCell>
        <mxCell id="wA9x3qdydGXnw0zg_fOg-162" value="" style="rounded=0;whiteSpace=wrap;html=1;fillColor=#0A0A0A;strokeWidth=3;fontStyle=1" parent="1" vertex="1">
          <mxGeometry x="30" y="510" width="20" height="20" as="geometry" />
        </mxCell>
        <mxCell id="wA9x3qdydGXnw0zg_fOg-163" value="" style="rounded=0;whiteSpace=wrap;html=1;fillColor=#0A0A0A;strokeWidth=3;fontStyle=1" parent="1" vertex="1">
          <mxGeometry x="70" y="510" width="20" height="20" as="geometry" />
        </mxCell>
        <mxCell id="wA9x3qdydGXnw0zg_fOg-164" value="" style="rounded=0;whiteSpace=wrap;html=1;fillColor=#0A0A0A;strokeWidth=3;fontStyle=1" parent="1" vertex="1">
          <mxGeometry x="110" y="510" width="20" height="20" as="geometry" />
        </mxCell>
        <mxCell id="wA9x3qdydGXnw0zg_fOg-165" value="" style="endArrow=none;dashed=1;html=1;rounded=0;strokeColor=#0A0A0A;strokeWidth=3;fontStyle=1" parent="1" edge="1">
          <mxGeometry width="50" height="50" relative="1" as="geometry">
            <mxPoint x="-50" y="600" as="sourcePoint" />
            <mxPoint x="-50" y="570" as="targetPoint" />
          </mxGeometry>
        </mxCell>
        <mxCell id="wA9x3qdydGXnw0zg_fOg-169" value="" style="endArrow=none;dashed=1;html=1;rounded=0;strokeColor=#0A0A0A;strokeWidth=3;fontStyle=1" parent="1" edge="1">
          <mxGeometry width="50" height="50" relative="1" as="geometry">
            <mxPoint x="560" y="80" as="sourcePoint" />
            <mxPoint x="590" y="80" as="targetPoint" />
          </mxGeometry>
        </mxCell>
        <mxCell id="wA9x3qdydGXnw0zg_fOg-172" value="" style="endArrow=none;dashed=1;html=1;rounded=0;strokeColor=#0A0A0A;strokeWidth=3;fontStyle=1" parent="1" edge="1">
          <mxGeometry width="50" height="50" relative="1" as="geometry">
            <mxPoint x="70" y="380" as="sourcePoint" />
            <mxPoint x="150" y="380" as="targetPoint" />
          </mxGeometry>
        </mxCell>
        <mxCell id="wA9x3qdydGXnw0zg_fOg-175" value="" style="endArrow=none;dashed=1;html=1;rounded=0;strokeColor=#0A0A0A;strokeWidth=3;fontStyle=1" parent="1" edge="1">
          <mxGeometry width="50" height="50" relative="1" as="geometry">
            <mxPoint x="440" y="80" as="sourcePoint" />
            <mxPoint x="520" y="80" as="targetPoint" />
            <Array as="points" />
          </mxGeometry>
        </mxCell>
        <mxCell id="wA9x3qdydGXnw0zg_fOg-181" value="" style="endArrow=none;dashed=1;html=1;dashPattern=1 3;strokeWidth=3;rounded=0;strokeColor=#00FF00;fontStyle=1" parent="1" edge="1">
          <mxGeometry width="50" height="50" relative="1" as="geometry">
            <mxPoint x="220" y="240" as="sourcePoint" />
            <mxPoint x="300" y="260" as="targetPoint" />
            <Array as="points">
              <mxPoint x="250" y="240" />
              <mxPoint x="300" y="240" />
            </Array>
          </mxGeometry>
        </mxCell>
        <mxCell id="wA9x3qdydGXnw0zg_fOg-193" value="" style="endArrow=none;dashed=1;html=1;dashPattern=1 3;strokeWidth=3;rounded=0;strokeColor=#00FF00;fontStyle=1" parent="1" edge="1">
          <mxGeometry width="50" height="50" relative="1" as="geometry">
            <mxPoint x="520" y="100" as="sourcePoint" />
            <mxPoint x="520" y="90" as="targetPoint" />
          </mxGeometry>
        </mxCell>
        <mxCell id="wA9x3qdydGXnw0zg_fOg-194" value="" style="endArrow=none;dashed=1;html=1;dashPattern=1 3;strokeWidth=3;rounded=0;strokeColor=#00FF00;startArrow=none;fontStyle=1" parent="1" edge="1" source="Iao7G-9x4Am7MKOK6cD3-62">
          <mxGeometry width="50" height="50" relative="1" as="geometry">
            <mxPoint x="460" y="300" as="sourcePoint" />
            <mxPoint x="520" y="100" as="targetPoint" />
            <Array as="points">
              <mxPoint x="460" y="100" />
            </Array>
          </mxGeometry>
        </mxCell>
        <mxCell id="wA9x3qdydGXnw0zg_fOg-195" value="" style="endArrow=none;dashed=1;html=1;dashPattern=1 3;strokeWidth=3;rounded=0;strokeColor=#00FF00;fontStyle=1" parent="1" edge="1">
          <mxGeometry width="50" height="50" relative="1" as="geometry">
            <mxPoint x="480" y="320" as="sourcePoint" />
            <mxPoint x="520" y="120" as="targetPoint" />
            <Array as="points">
              <mxPoint x="480" y="120" />
            </Array>
          </mxGeometry>
        </mxCell>
        <mxCell id="wA9x3qdydGXnw0zg_fOg-196" value="" style="endArrow=none;dashed=1;html=1;rounded=0;strokeColor=#0A0A0A;strokeWidth=3;fontStyle=1" parent="1" edge="1">
          <mxGeometry width="50" height="50" relative="1" as="geometry">
            <mxPoint x="440" y="79" as="sourcePoint" />
            <mxPoint x="440" y="49" as="targetPoint" />
          </mxGeometry>
        </mxCell>
        <mxCell id="wA9x3qdydGXnw0zg_fOg-197" value="" style="endArrow=none;dashed=1;html=1;dashPattern=1 3;strokeWidth=3;rounded=0;strokeColor=#00FF00;fontStyle=1" parent="1" edge="1">
          <mxGeometry width="50" height="50" relative="1" as="geometry">
            <mxPoint x="420" y="300" as="sourcePoint" />
            <mxPoint x="460" y="300" as="targetPoint" />
          </mxGeometry>
        </mxCell>
        <mxCell id="wA9x3qdydGXnw0zg_fOg-214" value="" style="endArrow=none;dashed=1;html=1;dashPattern=1 3;strokeWidth=3;rounded=0;strokeColor=#00FF00;fontStyle=1" parent="1" edge="1">
          <mxGeometry width="50" height="50" relative="1" as="geometry">
            <mxPoint x="420" y="300" as="sourcePoint" />
            <mxPoint x="420" y="100" as="targetPoint" />
          </mxGeometry>
        </mxCell>
        <mxCell id="wA9x3qdydGXnw0zg_fOg-215" value="" style="endArrow=none;dashed=1;html=1;dashPattern=1 3;strokeWidth=3;rounded=0;strokeColor=#00FF00;fontStyle=1" parent="1" edge="1">
          <mxGeometry width="50" height="50" relative="1" as="geometry">
            <mxPoint x="400" y="319.62" as="sourcePoint" />
            <mxPoint x="480" y="319.62" as="targetPoint" />
          </mxGeometry>
        </mxCell>
        <mxCell id="wA9x3qdydGXnw0zg_fOg-216" value="" style="endArrow=none;dashed=1;html=1;dashPattern=1 3;strokeWidth=3;rounded=0;strokeColor=#00FF00;startArrow=none;fontStyle=1" parent="1" edge="1" source="Iao7G-9x4Am7MKOK6cD3-45">
          <mxGeometry width="50" height="50" relative="1" as="geometry">
            <mxPoint x="400" y="320" as="sourcePoint" />
            <mxPoint x="400" y="120" as="targetPoint" />
          </mxGeometry>
        </mxCell>
        <mxCell id="wA9x3qdydGXnw0zg_fOg-217" value="" style="endArrow=none;dashed=1;html=1;dashPattern=1 3;strokeWidth=3;rounded=0;strokeColor=#00FF00;fontStyle=1" parent="1" edge="1">
          <mxGeometry width="50" height="50" relative="1" as="geometry">
            <mxPoint x="360" y="120" as="sourcePoint" />
            <mxPoint x="400" y="120" as="targetPoint" />
          </mxGeometry>
        </mxCell>
        <mxCell id="wA9x3qdydGXnw0zg_fOg-218" value="" style="endArrow=none;dashed=1;html=1;dashPattern=1 3;strokeWidth=3;rounded=0;strokeColor=#00FF00;fontStyle=1" parent="1" edge="1">
          <mxGeometry width="50" height="50" relative="1" as="geometry">
            <mxPoint x="340" y="100" as="sourcePoint" />
            <mxPoint x="420" y="100" as="targetPoint" />
          </mxGeometry>
        </mxCell>
        <mxCell id="wA9x3qdydGXnw0zg_fOg-219" value="" style="endArrow=none;dashed=1;html=1;dashPattern=1 3;strokeWidth=3;rounded=0;strokeColor=#00FF00;fontStyle=1" parent="1" edge="1">
          <mxGeometry width="50" height="50" relative="1" as="geometry">
            <mxPoint x="340" y="300" as="sourcePoint" />
            <mxPoint x="340" y="100" as="targetPoint" />
          </mxGeometry>
        </mxCell>
        <mxCell id="wA9x3qdydGXnw0zg_fOg-220" value="" style="endArrow=none;dashed=1;html=1;dashPattern=1 3;strokeWidth=3;rounded=0;strokeColor=#00FF00;fontStyle=1" parent="1" edge="1">
          <mxGeometry width="50" height="50" relative="1" as="geometry">
            <mxPoint x="360" y="320" as="sourcePoint" />
            <mxPoint x="360" y="120" as="targetPoint" />
          </mxGeometry>
        </mxCell>
        <mxCell id="wA9x3qdydGXnw0zg_fOg-221" value="" style="endArrow=none;dashed=1;html=1;dashPattern=1 3;strokeWidth=3;rounded=0;strokeColor=#00FF00;fontStyle=1" parent="1" edge="1">
          <mxGeometry width="50" height="50" relative="1" as="geometry">
            <mxPoint x="300" y="300" as="sourcePoint" />
            <mxPoint x="340" y="300" as="targetPoint" />
          </mxGeometry>
        </mxCell>
        <mxCell id="wA9x3qdydGXnw0zg_fOg-222" value="" style="endArrow=none;dashed=1;html=1;dashPattern=1 3;strokeWidth=3;rounded=0;strokeColor=#00FF00;fontStyle=1" parent="1" edge="1">
          <mxGeometry width="50" height="50" relative="1" as="geometry">
            <mxPoint x="280" y="319.62" as="sourcePoint" />
            <mxPoint x="360" y="319.62" as="targetPoint" />
          </mxGeometry>
        </mxCell>
        <mxCell id="wA9x3qdydGXnw0zg_fOg-223" value="" style="endArrow=none;dashed=1;html=1;dashPattern=1 3;strokeWidth=3;rounded=0;strokeColor=#00FF00;fontStyle=1" parent="1" edge="1">
          <mxGeometry width="50" height="50" relative="1" as="geometry">
            <mxPoint x="300" y="260" as="sourcePoint" />
            <mxPoint x="300" y="299" as="targetPoint" />
          </mxGeometry>
        </mxCell>
        <mxCell id="wA9x3qdydGXnw0zg_fOg-224" value="" style="endArrow=none;dashed=1;html=1;dashPattern=1 3;strokeWidth=3;rounded=0;strokeColor=#00FF00;fontStyle=1" parent="1" edge="1">
          <mxGeometry width="50" height="50" relative="1" as="geometry">
            <mxPoint x="280" y="320" as="sourcePoint" />
            <mxPoint x="280" y="260" as="targetPoint" />
          </mxGeometry>
        </mxCell>
        <mxCell id="wA9x3qdydGXnw0zg_fOg-225" value="" style="endArrow=none;dashed=1;html=1;dashPattern=1 3;strokeWidth=3;rounded=0;strokeColor=#00FF00;fontStyle=1" parent="1" edge="1">
          <mxGeometry width="50" height="50" relative="1" as="geometry">
            <mxPoint x="240" y="260" as="sourcePoint" />
            <mxPoint x="280" y="260" as="targetPoint" />
            <Array as="points">
              <mxPoint x="280" y="260" />
            </Array>
          </mxGeometry>
        </mxCell>
        <mxCell id="wA9x3qdydGXnw0zg_fOg-237" value="" style="endArrow=none;dashed=1;html=1;dashPattern=1 3;strokeWidth=3;rounded=0;strokeColor=#00FF00;fontStyle=1" parent="1" edge="1">
          <mxGeometry width="50" height="50" relative="1" as="geometry">
            <mxPoint x="240" y="360" as="sourcePoint" />
            <mxPoint x="240" y="260" as="targetPoint" />
          </mxGeometry>
        </mxCell>
        <mxCell id="wA9x3qdydGXnw0zg_fOg-238" value="" style="endArrow=none;dashed=1;html=1;dashPattern=1 3;strokeWidth=3;rounded=0;strokeColor=#00FF00;fontStyle=1" parent="1" edge="1">
          <mxGeometry width="50" height="50" relative="1" as="geometry">
            <mxPoint x="220" y="340" as="sourcePoint" />
            <mxPoint x="220" y="240" as="targetPoint" />
          </mxGeometry>
        </mxCell>
        <mxCell id="wA9x3qdydGXnw0zg_fOg-250" value="" style="endArrow=none;dashed=1;html=1;dashPattern=1 3;strokeWidth=3;rounded=0;strokeColor=#00FF00;fontStyle=1" parent="1" edge="1">
          <mxGeometry width="50" height="50" relative="1" as="geometry">
            <mxPoint x="180" y="360" as="sourcePoint" />
            <mxPoint x="240" y="360" as="targetPoint" />
          </mxGeometry>
        </mxCell>
        <mxCell id="wA9x3qdydGXnw0zg_fOg-251" value="" style="endArrow=none;dashed=1;html=1;dashPattern=1 3;strokeWidth=3;rounded=0;strokeColor=#00FF00;fontStyle=1" parent="1" edge="1">
          <mxGeometry width="50" height="50" relative="1" as="geometry">
            <mxPoint x="180" y="340" as="sourcePoint" />
            <mxPoint x="220" y="340" as="targetPoint" />
          </mxGeometry>
        </mxCell>
        <mxCell id="wA9x3qdydGXnw0zg_fOg-252" value="" style="endArrow=none;dashed=1;html=1;dashPattern=1 3;strokeWidth=3;rounded=0;strokeColor=#00FF00;fontStyle=1" parent="1" edge="1">
          <mxGeometry width="50" height="50" relative="1" as="geometry">
            <mxPoint x="140" y="370" as="sourcePoint" />
            <mxPoint x="140" y="330" as="targetPoint" />
          </mxGeometry>
        </mxCell>
        <mxCell id="wA9x3qdydGXnw0zg_fOg-253" value="" style="endArrow=none;dashed=1;html=1;dashPattern=1 3;strokeWidth=3;rounded=0;strokeColor=#00FF00;fontStyle=1" parent="1" edge="1">
          <mxGeometry width="50" height="50" relative="1" as="geometry">
            <mxPoint x="140" y="330" as="sourcePoint" />
            <mxPoint x="180" y="330" as="targetPoint" />
          </mxGeometry>
        </mxCell>
        <mxCell id="wA9x3qdydGXnw0zg_fOg-254" value="" style="endArrow=none;dashed=1;html=1;dashPattern=1 3;strokeWidth=3;rounded=0;strokeColor=#00FF00;fontStyle=1" parent="1" edge="1">
          <mxGeometry width="50" height="50" relative="1" as="geometry">
            <mxPoint x="180" y="330" as="sourcePoint" />
            <mxPoint x="180" y="340" as="targetPoint" />
          </mxGeometry>
        </mxCell>
        <mxCell id="wA9x3qdydGXnw0zg_fOg-255" value="" style="endArrow=none;dashed=1;html=1;dashPattern=1 3;strokeWidth=3;rounded=0;fontStyle=1" parent="1" edge="1">
          <mxGeometry width="50" height="50" relative="1" as="geometry">
            <mxPoint x="180" y="360" as="sourcePoint" />
            <mxPoint x="180" y="370" as="targetPoint" />
          </mxGeometry>
        </mxCell>
        <mxCell id="wA9x3qdydGXnw0zg_fOg-256" value="" style="endArrow=none;dashed=1;html=1;dashPattern=1 3;strokeWidth=3;rounded=0;strokeColor=#00FF00;fontStyle=1" parent="1" edge="1">
          <mxGeometry width="50" height="50" relative="1" as="geometry">
            <mxPoint x="140" y="370" as="sourcePoint" />
            <mxPoint x="180" y="370" as="targetPoint" />
          </mxGeometry>
        </mxCell>
        <mxCell id="wA9x3qdydGXnw0zg_fOg-257" value="" style="endArrow=none;dashed=1;html=1;rounded=0;strokeColor=#0A0A0A;strokeWidth=3;fontStyle=1" parent="1" edge="1">
          <mxGeometry width="50" height="50" relative="1" as="geometry">
            <mxPoint x="150" y="380" as="sourcePoint" />
            <mxPoint x="150" y="370" as="targetPoint" />
          </mxGeometry>
        </mxCell>
        <mxCell id="wA9x3qdydGXnw0zg_fOg-258" value="" style="endArrow=none;dashed=1;html=1;rounded=0;strokeColor=#0A0A0A;strokeWidth=3;fontStyle=1" parent="1" edge="1">
          <mxGeometry width="50" height="50" relative="1" as="geometry">
            <mxPoint x="140" y="370" as="sourcePoint" />
            <mxPoint x="150" y="370" as="targetPoint" />
          </mxGeometry>
        </mxCell>
        <mxCell id="wA9x3qdydGXnw0zg_fOg-259" value="" style="endArrow=none;dashed=1;html=1;rounded=0;strokeColor=#0A0A0A;strokeWidth=3;fontStyle=1" parent="1" edge="1">
          <mxGeometry width="50" height="50" relative="1" as="geometry">
            <mxPoint x="140" y="370" as="sourcePoint" />
            <mxPoint x="140" y="330" as="targetPoint" />
          </mxGeometry>
        </mxCell>
        <mxCell id="wA9x3qdydGXnw0zg_fOg-260" value="" style="endArrow=none;dashed=1;html=1;rounded=0;strokeColor=#0A0A0A;strokeWidth=3;fontStyle=1" parent="1" edge="1">
          <mxGeometry width="50" height="50" relative="1" as="geometry">
            <mxPoint x="140" y="330" as="sourcePoint" />
            <mxPoint x="180" y="330" as="targetPoint" />
            <Array as="points" />
          </mxGeometry>
        </mxCell>
        <mxCell id="wA9x3qdydGXnw0zg_fOg-261" value="" style="rounded=0;whiteSpace=wrap;html=1;fillColor=#0A0A0A;strokeWidth=3;fontStyle=1" parent="1" vertex="1">
          <mxGeometry x="70" y="440" width="20" height="20" as="geometry" />
        </mxCell>
        <mxCell id="wA9x3qdydGXnw0zg_fOg-262" value="" style="endArrow=none;dashed=1;html=1;rounded=0;strokeColor=#0A0A0A;strokeWidth=3;fontStyle=1" parent="1" edge="1">
          <mxGeometry width="50" height="50" relative="1" as="geometry">
            <mxPoint x="180" y="370" as="sourcePoint" />
            <mxPoint x="180" y="330" as="targetPoint" />
          </mxGeometry>
        </mxCell>
        <mxCell id="wA9x3qdydGXnw0zg_fOg-263" value="" style="endArrow=none;dashed=1;html=1;rounded=0;strokeColor=#0A0A0A;strokeWidth=3;fontStyle=1" parent="1" edge="1">
          <mxGeometry width="50" height="50" relative="1" as="geometry">
            <mxPoint x="170" y="370" as="sourcePoint" />
            <mxPoint x="180" y="370" as="targetPoint" />
          </mxGeometry>
        </mxCell>
        <mxCell id="wA9x3qdydGXnw0zg_fOg-264" value="" style="endArrow=none;dashed=1;html=1;rounded=0;strokeColor=#0A0A0A;strokeWidth=3;fontStyle=1" parent="1" edge="1">
          <mxGeometry width="50" height="50" relative="1" as="geometry">
            <mxPoint x="170" y="380" as="sourcePoint" />
            <mxPoint x="170" y="370" as="targetPoint" />
          </mxGeometry>
        </mxCell>
        <mxCell id="wA9x3qdydGXnw0zg_fOg-265" value="" style="endArrow=none;dashed=1;html=1;rounded=0;strokeColor=#0A0A0A;strokeWidth=3;fontStyle=1" parent="1" edge="1">
          <mxGeometry width="50" height="50" relative="1" as="geometry">
            <mxPoint x="70" y="570" as="sourcePoint" />
            <mxPoint x="70" y="540" as="targetPoint" />
          </mxGeometry>
        </mxCell>
        <mxCell id="wA9x3qdydGXnw0zg_fOg-266" value="" style="endArrow=none;dashed=1;html=1;rounded=0;strokeColor=#0A0A0A;strokeWidth=3;fontStyle=1" parent="1" edge="1">
          <mxGeometry width="50" height="50" relative="1" as="geometry">
            <mxPoint x="90" y="540" as="sourcePoint" />
            <mxPoint x="140" y="540" as="targetPoint" />
          </mxGeometry>
        </mxCell>
        <mxCell id="wA9x3qdydGXnw0zg_fOg-267" value="" style="endArrow=none;dashed=1;html=1;rounded=0;strokeColor=#0A0A0A;strokeWidth=3;fontStyle=1" parent="1" edge="1">
          <mxGeometry width="50" height="50" relative="1" as="geometry">
            <mxPoint x="90" y="570" as="sourcePoint" />
            <mxPoint x="90" y="540" as="targetPoint" />
          </mxGeometry>
        </mxCell>
        <mxCell id="wA9x3qdydGXnw0zg_fOg-268" value="" style="endArrow=none;dashed=1;html=1;rounded=0;strokeColor=#0A0A0A;strokeWidth=3;fontStyle=1" parent="1" edge="1">
          <mxGeometry width="50" height="50" relative="1" as="geometry">
            <mxPoint x="90" y="570" as="sourcePoint" />
            <mxPoint x="300" y="570" as="targetPoint" />
          </mxGeometry>
        </mxCell>
        <mxCell id="wA9x3qdydGXnw0zg_fOg-269" value="" style="endArrow=none;dashed=1;html=1;rounded=0;strokeColor=#0A0A0A;strokeWidth=3;fontStyle=1" parent="1" edge="1">
          <mxGeometry width="50" height="50" relative="1" as="geometry">
            <mxPoint x="300" y="570" as="sourcePoint" />
            <mxPoint x="300" y="540" as="targetPoint" />
          </mxGeometry>
        </mxCell>
        <mxCell id="wA9x3qdydGXnw0zg_fOg-270" value="" style="endArrow=none;dashed=1;html=1;rounded=0;strokeColor=#0A0A0A;strokeWidth=3;fontStyle=1" parent="1" edge="1">
          <mxGeometry width="50" height="50" relative="1" as="geometry">
            <mxPoint x="320" y="540" as="sourcePoint" />
            <mxPoint x="370" y="540" as="targetPoint" />
          </mxGeometry>
        </mxCell>
        <mxCell id="wA9x3qdydGXnw0zg_fOg-271" value="" style="endArrow=none;dashed=1;html=1;rounded=0;strokeColor=#0A0A0A;strokeWidth=3;fontStyle=1" parent="1" edge="1">
          <mxGeometry width="50" height="50" relative="1" as="geometry">
            <mxPoint x="320" y="570" as="sourcePoint" />
            <mxPoint x="320" y="540" as="targetPoint" />
          </mxGeometry>
        </mxCell>
        <mxCell id="wA9x3qdydGXnw0zg_fOg-272" value="" style="endArrow=none;dashed=1;html=1;rounded=0;strokeColor=#0A0A0A;strokeWidth=3;fontStyle=1" parent="1" edge="1">
          <mxGeometry width="50" height="50" relative="1" as="geometry">
            <mxPoint x="320" y="570" as="sourcePoint" />
            <mxPoint x="530" y="570" as="targetPoint" />
          </mxGeometry>
        </mxCell>
        <mxCell id="wA9x3qdydGXnw0zg_fOg-273" value="" style="endArrow=none;dashed=1;html=1;rounded=0;strokeColor=#0A0A0A;strokeWidth=3;fontStyle=1" parent="1" edge="1">
          <mxGeometry width="50" height="50" relative="1" as="geometry">
            <mxPoint x="610" y="400" as="sourcePoint" />
            <mxPoint x="610" y="370" as="targetPoint" />
          </mxGeometry>
        </mxCell>
        <mxCell id="wA9x3qdydGXnw0zg_fOg-274" value="&lt;font style=&quot;font-size: 16px;&quot;&gt;VDD&lt;/font&gt;" style="text;html=1;strokeColor=none;fillColor=none;align=center;verticalAlign=middle;whiteSpace=wrap;rounded=0;fontStyle=1" parent="1" vertex="1">
          <mxGeometry x="650" y="50" width="60" height="30" as="geometry" />
        </mxCell>
        <mxCell id="wA9x3qdydGXnw0zg_fOg-275" value="GND" style="text;html=1;strokeColor=none;fillColor=none;align=center;verticalAlign=middle;whiteSpace=wrap;rounded=0;fontSize=16;fontStyle=1" parent="1" vertex="1">
          <mxGeometry x="630" y="570" width="60" height="30" as="geometry" />
        </mxCell>
        <mxCell id="wA9x3qdydGXnw0zg_fOg-276" value="Vout" style="text;html=1;strokeColor=none;fillColor=none;align=center;verticalAlign=middle;whiteSpace=wrap;rounded=0;fontSize=16;fontStyle=1" parent="1" vertex="1">
          <mxGeometry x="630" y="370" width="60" height="30" as="geometry" />
        </mxCell>
        <mxCell id="Iao7G-9x4Am7MKOK6cD3-1" value="" style="rounded=0;whiteSpace=wrap;html=1;fontSize=16;strokeColor=#00FF00;strokeWidth=3;fillColor=#FFCCE6;fontStyle=1" vertex="1" parent="1">
          <mxGeometry x="180" y="340" width="20" height="20" as="geometry" />
        </mxCell>
        <mxCell id="Iao7G-9x4Am7MKOK6cD3-2" value="" style="rounded=0;whiteSpace=wrap;html=1;fontSize=16;strokeColor=#00FF00;strokeWidth=3;fillColor=#FFCCE6;fontStyle=1" vertex="1" parent="1">
          <mxGeometry x="201" y="340" width="20" height="20" as="geometry" />
        </mxCell>
        <mxCell id="Iao7G-9x4Am7MKOK6cD3-3" value="" style="rounded=0;whiteSpace=wrap;html=1;fontSize=16;strokeColor=#00FF00;strokeWidth=3;fillColor=#FFCCE6;fontStyle=1" vertex="1" parent="1">
          <mxGeometry x="220" y="340" width="20" height="20" as="geometry" />
        </mxCell>
        <mxCell id="Iao7G-9x4Am7MKOK6cD3-6" value="" style="rounded=0;whiteSpace=wrap;html=1;fontSize=16;strokeColor=#00FF00;strokeWidth=3;fillColor=#FFCCE6;fontStyle=1" vertex="1" parent="1">
          <mxGeometry x="220" y="320" width="20" height="20" as="geometry" />
        </mxCell>
        <mxCell id="Iao7G-9x4Am7MKOK6cD3-7" value="" style="rounded=0;whiteSpace=wrap;html=1;fontSize=16;strokeColor=#00FF00;strokeWidth=3;fillColor=#FFCCE6;fontStyle=1" vertex="1" parent="1">
          <mxGeometry x="220" y="300" width="20" height="20" as="geometry" />
        </mxCell>
        <mxCell id="Iao7G-9x4Am7MKOK6cD3-8" value="" style="rounded=0;whiteSpace=wrap;html=1;fontSize=16;strokeColor=#00FF00;strokeWidth=3;fillColor=#FFCCE6;fontStyle=1" vertex="1" parent="1">
          <mxGeometry x="220" y="280" width="20" height="20" as="geometry" />
        </mxCell>
        <mxCell id="Iao7G-9x4Am7MKOK6cD3-9" value="" style="rounded=0;whiteSpace=wrap;html=1;fontSize=16;strokeColor=#00FF00;strokeWidth=3;fillColor=#FFCCE6;fontStyle=1" vertex="1" parent="1">
          <mxGeometry x="220" y="260" width="20" height="20" as="geometry" />
        </mxCell>
        <mxCell id="Iao7G-9x4Am7MKOK6cD3-10" value="" style="rounded=0;whiteSpace=wrap;html=1;fontSize=16;strokeColor=#00FF00;strokeWidth=3;fillColor=#FFCCE6;fontStyle=1" vertex="1" parent="1">
          <mxGeometry x="220" y="240" width="20" height="20" as="geometry" />
        </mxCell>
        <mxCell id="Iao7G-9x4Am7MKOK6cD3-11" value="" style="rounded=0;whiteSpace=wrap;html=1;fontSize=16;strokeColor=#00FF00;strokeWidth=3;fillColor=#FFCCE6;fontStyle=1" vertex="1" parent="1">
          <mxGeometry x="240" y="240" width="20" height="20" as="geometry" />
        </mxCell>
        <mxCell id="Iao7G-9x4Am7MKOK6cD3-12" value="" style="rounded=0;whiteSpace=wrap;html=1;fontSize=16;strokeColor=#00FF00;strokeWidth=3;fillColor=#FFCCE6;fontStyle=1" vertex="1" parent="1">
          <mxGeometry x="260" y="240" width="20" height="20" as="geometry" />
        </mxCell>
        <mxCell id="Iao7G-9x4Am7MKOK6cD3-13" value="" style="rounded=0;whiteSpace=wrap;html=1;fontSize=16;strokeColor=#00FF00;strokeWidth=3;fillColor=#FFCCE6;fontStyle=1" vertex="1" parent="1">
          <mxGeometry x="281" y="240" width="20" height="20" as="geometry" />
        </mxCell>
        <mxCell id="Iao7G-9x4Am7MKOK6cD3-14" value="" style="rounded=0;whiteSpace=wrap;html=1;fontSize=16;strokeColor=#00FF00;strokeWidth=3;fillColor=#FFCCE6;fontStyle=1" vertex="1" parent="1">
          <mxGeometry x="280" y="261" width="20" height="20" as="geometry" />
        </mxCell>
        <mxCell id="Iao7G-9x4Am7MKOK6cD3-15" value="" style="rounded=0;whiteSpace=wrap;html=1;fontSize=16;strokeColor=#00FF00;strokeWidth=3;fillColor=#FFCCE6;fontStyle=1" vertex="1" parent="1">
          <mxGeometry x="280" y="282" width="20" height="20" as="geometry" />
        </mxCell>
        <mxCell id="Iao7G-9x4Am7MKOK6cD3-16" value="" style="rounded=0;whiteSpace=wrap;html=1;fontSize=16;strokeColor=#00FF00;strokeWidth=3;fillColor=#FFCCE6;fontStyle=1" vertex="1" parent="1">
          <mxGeometry x="280" y="301" width="20" height="20" as="geometry" />
        </mxCell>
        <mxCell id="Iao7G-9x4Am7MKOK6cD3-17" value="" style="rounded=0;whiteSpace=wrap;html=1;fontSize=16;strokeColor=#00FF00;strokeWidth=3;fillColor=#FFCCE6;fontStyle=1" vertex="1" parent="1">
          <mxGeometry x="301" y="301" width="20" height="20" as="geometry" />
        </mxCell>
        <mxCell id="Iao7G-9x4Am7MKOK6cD3-18" value="" style="rounded=0;whiteSpace=wrap;html=1;fontSize=16;strokeColor=#00FF00;strokeWidth=3;fillColor=#FFCCE6;fontStyle=1" vertex="1" parent="1">
          <mxGeometry x="322" y="301" width="20" height="20" as="geometry" />
        </mxCell>
        <mxCell id="Iao7G-9x4Am7MKOK6cD3-19" value="" style="rounded=0;whiteSpace=wrap;html=1;fontSize=16;strokeColor=#00FF00;strokeWidth=3;fillColor=#FFCCE6;fontStyle=1" vertex="1" parent="1">
          <mxGeometry x="340" y="301" width="20" height="20" as="geometry" />
        </mxCell>
        <mxCell id="Iao7G-9x4Am7MKOK6cD3-20" value="" style="rounded=0;whiteSpace=wrap;html=1;fontSize=16;strokeColor=#00FF00;strokeWidth=3;fillColor=#FFCCE6;fontStyle=1" vertex="1" parent="1">
          <mxGeometry x="340" y="279" width="20" height="20" as="geometry" />
        </mxCell>
        <mxCell id="Iao7G-9x4Am7MKOK6cD3-21" value="" style="rounded=0;whiteSpace=wrap;html=1;fontSize=16;strokeColor=#00FF00;strokeWidth=3;fillColor=#FFCCE6;fontStyle=1" vertex="1" parent="1">
          <mxGeometry x="340" y="260" width="20" height="20" as="geometry" />
        </mxCell>
        <mxCell id="Iao7G-9x4Am7MKOK6cD3-22" value="" style="rounded=0;whiteSpace=wrap;html=1;fontSize=16;strokeColor=#00FF00;strokeWidth=3;fillColor=#FFCCE6;fontStyle=1" vertex="1" parent="1">
          <mxGeometry x="340" y="240" width="20" height="20" as="geometry" />
        </mxCell>
        <mxCell id="Iao7G-9x4Am7MKOK6cD3-23" value="" style="rounded=0;whiteSpace=wrap;html=1;fontSize=16;strokeColor=#00FF00;strokeWidth=3;fillColor=#FFCCE6;fontStyle=1" vertex="1" parent="1">
          <mxGeometry x="340" y="220" width="20" height="20" as="geometry" />
        </mxCell>
        <mxCell id="Iao7G-9x4Am7MKOK6cD3-24" value="" style="rounded=0;whiteSpace=wrap;html=1;fontSize=16;strokeColor=#00FF00;strokeWidth=3;fillColor=#FFCCE6;fontStyle=1" vertex="1" parent="1">
          <mxGeometry x="340" y="201" width="20" height="20" as="geometry" />
        </mxCell>
        <mxCell id="Iao7G-9x4Am7MKOK6cD3-25" value="" style="rounded=0;whiteSpace=wrap;html=1;fontSize=16;strokeColor=#00FF00;strokeWidth=3;fillColor=#FFCCE6;fontStyle=1" vertex="1" parent="1">
          <mxGeometry x="340" y="181" width="20" height="20" as="geometry" />
        </mxCell>
        <mxCell id="Iao7G-9x4Am7MKOK6cD3-29" value="" style="rounded=0;whiteSpace=wrap;html=1;fontSize=16;strokeColor=#00FF00;strokeWidth=3;fillColor=#FFCCE6;fontStyle=1" vertex="1" parent="1">
          <mxGeometry x="340" y="162" width="20" height="20" as="geometry" />
        </mxCell>
        <mxCell id="Iao7G-9x4Am7MKOK6cD3-30" value="" style="rounded=0;whiteSpace=wrap;html=1;fontSize=16;strokeColor=#00FF00;strokeWidth=3;fillColor=#FFCCE6;fontStyle=1" vertex="1" parent="1">
          <mxGeometry x="340" y="142" width="20" height="20" as="geometry" />
        </mxCell>
        <mxCell id="Iao7G-9x4Am7MKOK6cD3-31" value="" style="rounded=0;whiteSpace=wrap;html=1;fontSize=16;strokeColor=#00FF00;strokeWidth=3;fillColor=#FFCCE6;fontStyle=1" vertex="1" parent="1">
          <mxGeometry x="340" y="122" width="20" height="20" as="geometry" />
        </mxCell>
        <mxCell id="Iao7G-9x4Am7MKOK6cD3-32" value="" style="rounded=0;whiteSpace=wrap;html=1;fontSize=16;strokeColor=#00FF00;strokeWidth=3;fillColor=#FFCCE6;fontStyle=1" vertex="1" parent="1">
          <mxGeometry x="340" y="100" width="20" height="20" as="geometry" />
        </mxCell>
        <mxCell id="Iao7G-9x4Am7MKOK6cD3-33" value="" style="rounded=0;whiteSpace=wrap;html=1;fontSize=16;strokeColor=#00FF00;strokeWidth=3;fillColor=#FFCCE6;fontStyle=1" vertex="1" parent="1">
          <mxGeometry x="360" y="100" width="20" height="20" as="geometry" />
        </mxCell>
        <mxCell id="Iao7G-9x4Am7MKOK6cD3-34" value="" style="rounded=0;whiteSpace=wrap;html=1;fontSize=16;strokeColor=#00FF00;strokeWidth=3;fillColor=#FFCCE6;fontStyle=1" vertex="1" parent="1">
          <mxGeometry x="380" y="100" width="20" height="20" as="geometry" />
        </mxCell>
        <mxCell id="Iao7G-9x4Am7MKOK6cD3-35" value="" style="rounded=0;whiteSpace=wrap;html=1;fontSize=16;strokeColor=#00FF00;strokeWidth=3;fillColor=#FFCCE6;fontStyle=1" vertex="1" parent="1">
          <mxGeometry x="400" y="100" width="20" height="20" as="geometry" />
        </mxCell>
        <mxCell id="Iao7G-9x4Am7MKOK6cD3-36" value="" style="rounded=0;whiteSpace=wrap;html=1;fontSize=16;strokeColor=#00FF00;strokeWidth=3;fillColor=#FFCCE6;fontStyle=1" vertex="1" parent="1">
          <mxGeometry x="400" y="122" width="20" height="20" as="geometry" />
        </mxCell>
        <mxCell id="Iao7G-9x4Am7MKOK6cD3-37" value="" style="rounded=0;whiteSpace=wrap;html=1;fontSize=16;strokeColor=#00FF00;strokeWidth=3;fillColor=#FFCCE6;fontStyle=1" vertex="1" parent="1">
          <mxGeometry x="400" y="142" width="20" height="20" as="geometry" />
        </mxCell>
        <mxCell id="Iao7G-9x4Am7MKOK6cD3-38" value="" style="rounded=0;whiteSpace=wrap;html=1;fontSize=16;strokeColor=#00FF00;strokeWidth=3;fillColor=#FFCCE6;fontStyle=1" vertex="1" parent="1">
          <mxGeometry x="400" y="162" width="20" height="20" as="geometry" />
        </mxCell>
        <mxCell id="Iao7G-9x4Am7MKOK6cD3-39" value="" style="rounded=0;whiteSpace=wrap;html=1;fontSize=16;strokeColor=#00FF00;strokeWidth=3;fillColor=#FFCCE6;fontStyle=1" vertex="1" parent="1">
          <mxGeometry x="400" y="182" width="20" height="20" as="geometry" />
        </mxCell>
        <mxCell id="Iao7G-9x4Am7MKOK6cD3-40" value="" style="rounded=0;whiteSpace=wrap;html=1;fontSize=16;strokeColor=#00FF00;strokeWidth=3;fillColor=#FFCCE6;fontStyle=1" vertex="1" parent="1">
          <mxGeometry x="400" y="202" width="20" height="20" as="geometry" />
        </mxCell>
        <mxCell id="Iao7G-9x4Am7MKOK6cD3-41" value="" style="rounded=0;whiteSpace=wrap;html=1;fontSize=16;strokeColor=#00FF00;strokeWidth=3;fillColor=#FFCCE6;fontStyle=1" vertex="1" parent="1">
          <mxGeometry x="400" y="220" width="20" height="20" as="geometry" />
        </mxCell>
        <mxCell id="Iao7G-9x4Am7MKOK6cD3-42" value="" style="rounded=0;whiteSpace=wrap;html=1;fontSize=16;strokeColor=#00FF00;strokeWidth=3;fillColor=#FFCCE6;fontStyle=1" vertex="1" parent="1">
          <mxGeometry x="400" y="240" width="20" height="20" as="geometry" />
        </mxCell>
        <mxCell id="Iao7G-9x4Am7MKOK6cD3-43" value="" style="rounded=0;whiteSpace=wrap;html=1;fontSize=16;strokeColor=#00FF00;strokeWidth=3;fillColor=#FFCCE6;fontStyle=1" vertex="1" parent="1">
          <mxGeometry x="400" y="259" width="20" height="20" as="geometry" />
        </mxCell>
        <mxCell id="Iao7G-9x4Am7MKOK6cD3-44" value="" style="rounded=0;whiteSpace=wrap;html=1;fontSize=16;strokeColor=#00FF00;strokeWidth=3;fillColor=#FFCCE6;fontStyle=1" vertex="1" parent="1">
          <mxGeometry x="400" y="279" width="20" height="20" as="geometry" />
        </mxCell>
        <mxCell id="Iao7G-9x4Am7MKOK6cD3-45" value="" style="rounded=0;whiteSpace=wrap;html=1;fontSize=16;strokeColor=#00FF00;strokeWidth=3;fillColor=#FFCCE6;fontStyle=1" vertex="1" parent="1">
          <mxGeometry x="400" y="299" width="20" height="20" as="geometry" />
        </mxCell>
        <mxCell id="Iao7G-9x4Am7MKOK6cD3-48" value="" style="endArrow=none;dashed=1;html=1;dashPattern=1 3;strokeWidth=3;rounded=0;strokeColor=#00FF00;fontStyle=1" edge="1" parent="1" target="Iao7G-9x4Am7MKOK6cD3-45">
          <mxGeometry width="50" height="50" relative="1" as="geometry">
            <mxPoint x="400" y="320" as="sourcePoint" />
            <mxPoint x="400" y="120" as="targetPoint" />
          </mxGeometry>
        </mxCell>
        <mxCell id="Iao7G-9x4Am7MKOK6cD3-49" value="" style="rounded=0;whiteSpace=wrap;html=1;fontSize=16;strokeColor=#00FF00;strokeWidth=3;fillColor=#FFCCE6;fontStyle=1" vertex="1" parent="1">
          <mxGeometry x="420" y="299" width="20" height="20" as="geometry" />
        </mxCell>
        <mxCell id="Iao7G-9x4Am7MKOK6cD3-50" value="" style="rounded=0;whiteSpace=wrap;html=1;fontSize=16;strokeColor=#00FF00;strokeWidth=3;fillColor=#FFCCE6;fontStyle=1" vertex="1" parent="1">
          <mxGeometry x="440" y="299" width="20" height="20" as="geometry" />
        </mxCell>
        <mxCell id="Iao7G-9x4Am7MKOK6cD3-51" value="" style="rounded=0;whiteSpace=wrap;html=1;fontSize=16;strokeColor=#00FF00;strokeWidth=3;fillColor=#FFCCE6;fontStyle=1" vertex="1" parent="1">
          <mxGeometry x="460" y="299" width="20" height="20" as="geometry" />
        </mxCell>
        <mxCell id="Iao7G-9x4Am7MKOK6cD3-52" value="" style="rounded=0;whiteSpace=wrap;html=1;fontSize=16;strokeColor=#00FF00;strokeWidth=3;fillColor=#FFCCE6;fontStyle=1" vertex="1" parent="1">
          <mxGeometry x="460" y="279" width="20" height="20" as="geometry" />
        </mxCell>
        <mxCell id="Iao7G-9x4Am7MKOK6cD3-53" value="" style="rounded=0;whiteSpace=wrap;html=1;fontSize=16;strokeColor=#00FF00;strokeWidth=3;fillColor=#FFCCE6;fontStyle=1" vertex="1" parent="1">
          <mxGeometry x="460" y="259" width="20" height="20" as="geometry" />
        </mxCell>
        <mxCell id="Iao7G-9x4Am7MKOK6cD3-55" value="" style="rounded=0;whiteSpace=wrap;html=1;fontSize=16;strokeColor=#00FF00;strokeWidth=3;fillColor=#FFCCE6;fontStyle=1" vertex="1" parent="1">
          <mxGeometry x="460" y="239" width="20" height="20" as="geometry" />
        </mxCell>
        <mxCell id="Iao7G-9x4Am7MKOK6cD3-56" value="" style="rounded=0;whiteSpace=wrap;html=1;fontSize=16;strokeColor=#00FF00;strokeWidth=3;fillColor=#FFCCE6;fontStyle=1" vertex="1" parent="1">
          <mxGeometry x="460" y="219" width="20" height="20" as="geometry" />
        </mxCell>
        <mxCell id="Iao7G-9x4Am7MKOK6cD3-57" value="" style="rounded=0;whiteSpace=wrap;html=1;fontSize=16;strokeColor=#00FF00;strokeWidth=3;fillColor=#FFCCE6;fontStyle=1" vertex="1" parent="1">
          <mxGeometry x="460" y="199" width="20" height="20" as="geometry" />
        </mxCell>
        <mxCell id="Iao7G-9x4Am7MKOK6cD3-58" value="" style="rounded=0;whiteSpace=wrap;html=1;fontSize=16;strokeColor=#00FF00;strokeWidth=3;fillColor=#FFCCE6;fontStyle=1" vertex="1" parent="1">
          <mxGeometry x="460" y="182" width="20" height="20" as="geometry" />
        </mxCell>
        <mxCell id="Iao7G-9x4Am7MKOK6cD3-59" value="" style="rounded=0;whiteSpace=wrap;html=1;fontSize=16;strokeColor=#00FF00;strokeWidth=3;fillColor=#FFCCE6;fontStyle=1" vertex="1" parent="1">
          <mxGeometry x="460" y="162" width="20" height="20" as="geometry" />
        </mxCell>
        <mxCell id="Iao7G-9x4Am7MKOK6cD3-60" value="" style="rounded=0;whiteSpace=wrap;html=1;fontSize=16;strokeColor=#00FF00;strokeWidth=3;fillColor=#FFCCE6;fontStyle=1" vertex="1" parent="1">
          <mxGeometry x="460" y="142" width="20" height="20" as="geometry" />
        </mxCell>
        <mxCell id="Iao7G-9x4Am7MKOK6cD3-61" value="" style="rounded=0;whiteSpace=wrap;html=1;fontSize=16;strokeColor=#00FF00;strokeWidth=3;fillColor=#FFCCE6;fontStyle=1" vertex="1" parent="1">
          <mxGeometry x="460" y="122" width="20" height="20" as="geometry" />
        </mxCell>
        <mxCell id="Iao7G-9x4Am7MKOK6cD3-62" value="" style="rounded=0;whiteSpace=wrap;html=1;fontSize=16;strokeColor=#00FF00;strokeWidth=3;fillColor=#FFCCE6;fontStyle=1" vertex="1" parent="1">
          <mxGeometry x="460" y="100" width="20" height="20" as="geometry" />
        </mxCell>
        <mxCell id="Iao7G-9x4Am7MKOK6cD3-63" value="" style="endArrow=none;dashed=1;html=1;dashPattern=1 3;strokeWidth=3;rounded=0;strokeColor=#00FF00;entryX=0;entryY=0.75;entryDx=0;entryDy=0;fontStyle=1" edge="1" parent="1" target="Iao7G-9x4Am7MKOK6cD3-62">
          <mxGeometry width="50" height="50" relative="1" as="geometry">
            <mxPoint x="460" y="300" as="sourcePoint" />
            <mxPoint x="520" y="100" as="targetPoint" />
            <Array as="points" />
          </mxGeometry>
        </mxCell>
        <mxCell id="Iao7G-9x4Am7MKOK6cD3-64" value="" style="rounded=0;whiteSpace=wrap;html=1;fontSize=16;strokeColor=#00FF00;strokeWidth=3;fillColor=#FFCCE6;fontStyle=1" vertex="1" parent="1">
          <mxGeometry x="480" y="100" width="20" height="20" as="geometry" />
        </mxCell>
        <mxCell id="Iao7G-9x4Am7MKOK6cD3-65" value="" style="rounded=0;whiteSpace=wrap;html=1;fontSize=16;strokeColor=#00FF00;strokeWidth=3;fillColor=#FFCCE6;fontStyle=1" vertex="1" parent="1">
          <mxGeometry x="500" y="100" width="20" height="20" as="geometry" />
        </mxCell>
        <mxCell id="Iao7G-9x4Am7MKOK6cD3-67" value="&lt;div style=&quot;text-align: start; font-size: 14px;&quot;&gt;&lt;span style=&quot;background-color: initial;&quot;&gt;↕ &amp;gt;3&lt;/span&gt;&lt;span style=&quot;background-color: rgb(255, 255, 255);&quot;&gt;⋋&lt;/span&gt;&lt;/div&gt;" style="text;html=1;strokeColor=none;fillColor=none;align=center;verticalAlign=middle;whiteSpace=wrap;rounded=0;fontSize=16;fontColor=#FF0000;fontStyle=1" vertex="1" parent="1">
          <mxGeometry x="470" y="50" width="60" height="30" as="geometry" />
        </mxCell>
        <mxCell id="Iao7G-9x4Am7MKOK6cD3-70" value="&lt;span style=&quot;font-size: 14px;&quot;&gt;≥&lt;/span&gt;&lt;b style=&quot;font-size: 14px;&quot;&gt;3⋋&lt;/b&gt;" style="text;html=1;strokeColor=none;fillColor=none;align=center;verticalAlign=middle;whiteSpace=wrap;rounded=0;fontFamily=Helvetica;fontSize=14;fontColor=#FF0000;" vertex="1" parent="1">
          <mxGeometry x="546" y="89" width="60" height="30" as="geometry" />
        </mxCell>
        <mxCell id="Iao7G-9x4Am7MKOK6cD3-74" value="↔" style="text;html=1;strokeColor=none;fillColor=none;align=center;verticalAlign=middle;whiteSpace=wrap;rounded=0;fontFamily=Helvetica;fontSize=21;fontColor=#FF0000;" vertex="1" parent="1">
          <mxGeometry x="545" y="98" width="60" height="30" as="geometry" />
        </mxCell>
        <mxCell id="Iao7G-9x4Am7MKOK6cD3-75" value="≥2⋋" style="text;html=1;strokeColor=none;fillColor=none;align=center;verticalAlign=middle;whiteSpace=wrap;rounded=0;fontFamily=Helvetica;fontSize=14;fontColor=#FF0000;" vertex="1" parent="1">
          <mxGeometry x="470" y="294" width="60" height="30" as="geometry" />
        </mxCell>
        <mxCell id="Iao7G-9x4Am7MKOK6cD3-82" value="&lt;span style=&quot;color: rgb(255, 0, 0); font-family: Helvetica; font-size: 14px; font-style: normal; font-variant-ligatures: normal; font-variant-caps: normal; font-weight: 700; letter-spacing: normal; orphans: 2; text-align: start; text-indent: 0px; text-transform: none; widows: 2; word-spacing: 0px; -webkit-text-stroke-width: 0px; background-color: initial; text-decoration-thickness: initial; text-decoration-style: initial; text-decoration-color: initial;&quot;&gt;↕ &amp;gt;3&lt;/span&gt;&lt;span style=&quot;color: rgb(255, 0, 0); font-family: Helvetica; font-size: 14px; font-style: normal; font-variant-ligatures: normal; font-variant-caps: normal; font-weight: 700; letter-spacing: normal; orphans: 2; text-align: start; text-indent: 0px; text-transform: none; widows: 2; word-spacing: 0px; -webkit-text-stroke-width: 0px; text-decoration-thickness: initial; text-decoration-style: initial; text-decoration-color: initial; background-color: rgb(255, 255, 255);&quot;&gt;⋋&lt;/span&gt;" style="text;whiteSpace=wrap;html=1;fontSize=14;fontFamily=Helvetica;fontColor=#FF0000;" vertex="1" parent="1">
          <mxGeometry x="560" y="370" width="60" height="30" as="geometry" />
        </mxCell>
        <mxCell id="Iao7G-9x4Am7MKOK6cD3-83" value="&lt;font style=&quot;font-size: 16px;&quot;&gt;&lt;span style=&quot;color: rgb(255, 0, 0); font-family: Helvetica; font-style: normal; font-variant-ligatures: normal; font-variant-caps: normal; font-weight: 700; letter-spacing: normal; orphans: 2; text-align: start; text-indent: 0px; text-transform: none; widows: 2; word-spacing: 0px; -webkit-text-stroke-width: 0px; background-color: initial; text-decoration-thickness: initial; text-decoration-style: initial; text-decoration-color: initial;&quot;&gt;↕ &amp;gt;3&lt;/span&gt;&lt;span style=&quot;color: rgb(255, 0, 0); font-family: Helvetica; font-style: normal; font-variant-ligatures: normal; font-variant-caps: normal; font-weight: 700; letter-spacing: normal; orphans: 2; text-align: start; text-indent: 0px; text-transform: none; widows: 2; word-spacing: 0px; -webkit-text-stroke-width: 0px; text-decoration-thickness: initial; text-decoration-style: initial; text-decoration-color: initial; background-color: rgb(255, 255, 255);&quot;&gt;⋋&lt;/span&gt;&lt;/font&gt;" style="text;whiteSpace=wrap;html=1;fontSize=14;fontFamily=Helvetica;fontColor=#FF0000;" vertex="1" parent="1">
          <mxGeometry x="570" y="570" width="60" height="30" as="geometry" />
        </mxCell>
        <mxCell id="Iao7G-9x4Am7MKOK6cD3-84" value="↔" style="text;html=1;strokeColor=none;fillColor=none;align=center;verticalAlign=middle;whiteSpace=wrap;rounded=0;fontFamily=Helvetica;fontSize=20;fontColor=#FF0000;" vertex="1" parent="1">
          <mxGeometry x="-26" y="489" width="60" height="30" as="geometry" />
        </mxCell>
        <mxCell id="Iao7G-9x4Am7MKOK6cD3-86" value="&lt;font style=&quot;font-size: 14px;&quot;&gt;≥3⋋&lt;/font&gt;" style="text;html=1;strokeColor=none;fillColor=none;align=center;verticalAlign=middle;whiteSpace=wrap;rounded=0;fontFamily=Helvetica;fontSize=21;fontColor=#FF0000;" vertex="1" parent="1">
          <mxGeometry x="-23" y="502" width="60" height="30" as="geometry" />
        </mxCell>
        <mxCell id="Iao7G-9x4Am7MKOK6cD3-88" value="↔" style="text;html=1;strokeColor=none;fillColor=none;align=center;verticalAlign=middle;whiteSpace=wrap;rounded=0;fontFamily=Helvetica;fontSize=18;fontColor=#FF0000;" vertex="1" parent="1">
          <mxGeometry x="120" y="489" width="60" height="30" as="geometry" />
        </mxCell>
        <mxCell id="Iao7G-9x4Am7MKOK6cD3-89" value="" style="endArrow=none;dashed=1;html=1;dashPattern=1 3;strokeWidth=3;rounded=0;strokeColor=#00FF00;fontStyle=1" edge="1" parent="1">
          <mxGeometry width="50" height="50" relative="1" as="geometry">
            <mxPoint x="520" y="340" as="sourcePoint" />
            <mxPoint x="530" y="337.5" as="targetPoint" />
          </mxGeometry>
        </mxCell>
        <mxCell id="Iao7G-9x4Am7MKOK6cD3-91" value="≥2⋋" style="text;html=1;strokeColor=none;fillColor=none;align=center;verticalAlign=middle;whiteSpace=wrap;rounded=0;fontFamily=Helvetica;fontSize=14;fontColor=#FF0000;" vertex="1" parent="1">
          <mxGeometry x="130" y="505" width="60" height="30" as="geometry" />
        </mxCell>
        <mxCell id="Iao7G-9x4Am7MKOK6cD3-76" value="↔" style="text;html=1;strokeColor=none;fillColor=none;align=center;verticalAlign=middle;whiteSpace=wrap;rounded=0;fontFamily=Helvetica;fontSize=18;fontColor=#FF0000;" vertex="1" parent="1">
          <mxGeometry x="476" y="279" width="60" height="30" as="geometry" />
        </mxCell>
        <mxCell id="Iao7G-9x4Am7MKOK6cD3-93" value="" style="endArrow=none;dashed=1;html=1;dashPattern=1 3;strokeWidth=3;rounded=0;strokeColor=#00FF00;fontStyle=1;startArrow=none;" edge="1" parent="1">
          <mxGeometry width="50" height="50" relative="1" as="geometry">
            <mxPoint x="520" y="340" as="sourcePoint" />
            <mxPoint x="520" y="260" as="targetPoint" />
          </mxGeometry>
        </mxCell>
        <mxCell id="Iao7G-9x4Am7MKOK6cD3-94" value="↕" style="text;html=1;strokeColor=none;fillColor=none;align=center;verticalAlign=middle;whiteSpace=wrap;rounded=0;fontFamily=Helvetica;fontSize=18;fontColor=#FF0000;" vertex="1" parent="1">
          <mxGeometry x="460" y="540" width="60" height="30" as="geometry" />
        </mxCell>
        <mxCell id="Iao7G-9x4Am7MKOK6cD3-99" value="≥3⋋" style="text;html=1;strokeColor=none;fillColor=none;align=center;verticalAlign=middle;whiteSpace=wrap;rounded=0;fontFamily=Helvetica;fontSize=18;fontColor=#FF0000;" vertex="1" parent="1">
          <mxGeometry x="481" y="540" width="60" height="30" as="geometry" />
        </mxCell>
        <mxCell id="Iao7G-9x4Am7MKOK6cD3-100" value="" style="endArrow=none;dashed=1;html=1;dashPattern=1 3;strokeWidth=3;rounded=0;strokeColor=#00FF00;fontStyle=1" edge="1" parent="1" target="Iao7G-9x4Am7MKOK6cD3-99">
          <mxGeometry width="50" height="50" relative="1" as="geometry">
            <mxPoint x="600" y="540" as="sourcePoint" />
            <mxPoint x="480" y="540" as="targetPoint" />
          </mxGeometry>
        </mxCell>
        <mxCell id="Iao7G-9x4Am7MKOK6cD3-101" value="≥2⋋" style="text;html=1;strokeColor=none;fillColor=none;align=center;verticalAlign=middle;whiteSpace=wrap;rounded=0;fontFamily=Helvetica;fontSize=14;fontColor=#FF0000;" vertex="1" parent="1">
          <mxGeometry x="370" y="498" width="60" height="30" as="geometry" />
        </mxCell>
        <mxCell id="Iao7G-9x4Am7MKOK6cD3-104" value="↔" style="text;html=1;strokeColor=none;fillColor=none;align=center;verticalAlign=middle;whiteSpace=wrap;rounded=0;fontFamily=Helvetica;fontSize=18;fontColor=#FF0000;" vertex="1" parent="1">
          <mxGeometry x="370" y="480" width="60" height="30" as="geometry" />
        </mxCell>
        <mxCell id="Iao7G-9x4Am7MKOK6cD3-107" value="≥3⋋" style="text;html=1;strokeColor=none;fillColor=none;align=center;verticalAlign=middle;whiteSpace=wrap;rounded=0;fontFamily=Helvetica;fontSize=18;fontColor=#FF0000;" vertex="1" parent="1">
          <mxGeometry x="190" y="540" width="60" height="30" as="geometry" />
        </mxCell>
        <mxCell id="Iao7G-9x4Am7MKOK6cD3-110" value="↕" style="text;html=1;strokeColor=none;fillColor=none;align=center;verticalAlign=middle;whiteSpace=wrap;rounded=0;fontFamily=Helvetica;fontSize=18;fontColor=#FF0000;" vertex="1" parent="1">
          <mxGeometry x="162" y="538" width="60" height="30" as="geometry" />
        </mxCell>
      </root>
    </mxGraphModel>
  </diagram>
</mxfile>
